<svg width="1348" height="39" viewBox="0 0 1348 39" fill="none" xmlns="http://www.w3.org/2000/svg">
<path d="M182.779 33.6423C68.5423 23.6258 12.4622 38.9999 0 38.9999H1348V1.49638C1328.06 0.00555373 1267.69 9.88222 1239.99 15.0069C1196.37 19.1222 1105.82 24.2314 1092.52 11.7458C1079.23 -0.739868 931.898 15.0846 859.894 24.5576C823.338 17.2898 780.966 18.1905 764.35 20.1317C679.607 36.9034 632.112 33.0211 618.957 28.9834C565.785 3.63945 498.489 9.10576 471.488 15.0069C458.195 24.8836 420.254 28.4399 402.945 28.9834C351.435 23.3928 306.709 26.654 290.785 28.9834C239.898 37.8352 189.01 33.6423 182.779 33.6423Z" fill="url(#paint0_linear_2051_3364)" fill-opacity="0.1"/>
<path d="M220.138 19.0387C123.984 19.0387 97.9962 34.2649 0.542968 34.2649V39H1348V16.2592C1337.43 15.6299 1324.96 15.1646 1310.31 15.1646C1236.25 15.1646 1260.94 3.36211 1140.1 3.36211H812.653C682.716 3.36211 750.283 20.0298 572.269 20.0298C394.254 20.0298 486.51 7.32631 389.057 7.32631C291.603 7.32631 316.291 19.0387 220.138 19.0387Z" fill="url(#paint1_linear_2051_3364)"/>
<path d="M186.819 26.828C90.5954 26.828 105.677 0 8.15321 0C3.63533 0.834597 1.84573 2.03382 0 5.3793V38.9999H1348V3.3535C1348 7.43207 1318.45 8.70096 1303.79 8.70096C1229.67 8.70096 1250.47 0 1129.55 0C1008.62 0 951.402 17.7645 821.371 17.7645C691.34 17.7645 728.286 11.7826 592.516 11.7826H388.367C290.844 11.7826 283.042 26.828 186.819 26.828Z" fill="url(#paint2_linear_2051_3364)" fill-opacity="0.35"/>
<path d="M189.009 27.9052C92.9409 27.9052 107.686 0.672486 10.3197 0.672486C5.80914 1.49269 4.02243 2.67124 2.17968 5.95904V39H1348V3.96816C1348 7.97642 1318.5 9.22343 1303.86 9.22343C1229.86 9.22343 1252.03 1.6811 1131.3 1.6811C1010.57 1.6811 953.722 19.1638 823.901 19.1638C694.08 19.1638 729.174 13.4483 593.624 13.4483H391.588C294.222 13.4483 285.076 27.9052 189.009 27.9052Z" fill="url(#paint3_linear_2051_3364)" fill-opacity="0.35"/>
<defs>
<linearGradient id="paint0_linear_2051_3364" x1="674" y1="0" x2="674" y2="39" gradientUnits="userSpaceOnUse">
<stop stop-color="#224B9F"/>
<stop offset="1" stop-color="#0575A0"/>
</linearGradient>
<linearGradient id="paint1_linear_2051_3364" x1="674" y1="0" x2="674" y2="39" gradientUnits="userSpaceOnUse">
<stop stop-color="#2B3FF2" stop-opacity="0.15"/>
<stop offset="1" stop-color="#2B3FF2" stop-opacity="0"/>
</linearGradient>
<linearGradient id="paint2_linear_2051_3364" x1="675.087" y1="0" x2="675.087" y2="39" gradientUnits="userSpaceOnUse">
<stop stop-color="#8EF27E" stop-opacity="0.15"/>
<stop offset="1" stop-color="#8EF27E" stop-opacity="0"/>
</linearGradient>
<linearGradient id="paint3_linear_2051_3364" x1="676.175" y1="0.672486" x2="676.175" y2="39" gradientUnits="userSpaceOnUse">
<stop stop-color="#8EF27E" stop-opacity="0.15"/>
<stop offset="1" stop-color="#8EF27E" stop-opacity="0"/>
</linearGradient>
</defs>
</svg>
