<svg width="40" height="44" viewBox="0 0 40 44" fill="none" xmlns="http://www.w3.org/2000/svg">
<mask id="path-1-inside-1_11_102" fill="white">
<path d="M2.53944 9.11659C1.04841 10.08 0.103153 11.7175 0 13.5158V30.4842C0.103153 32.2825 1.04841 33.92 2.53944 34.8834L17.4529 43.399C19.0548 44.2003 20.9298 44.2003 22.5317 43.399L37.4606 34.8834C38.9516 33.92 39.8968 32.2825 40 30.4842V13.5158C39.8968 11.7175 38.9516 10.08 37.4606 9.11659L22.5471 0.600977C20.9452 -0.200326 19.0702 -0.200326 17.4683 0.600977L2.53944 9.11659Z"/>
</mask>
<path d="M2.53944 9.11659C1.04841 10.08 0.103153 11.7175 0 13.5158V30.4842C0.103153 32.2825 1.04841 33.92 2.53944 34.8834L17.4529 43.399C19.0548 44.2003 20.9298 44.2003 22.5317 43.399L37.4606 34.8834C38.9516 33.92 39.8968 32.2825 40 30.4842V13.5158C39.8968 11.7175 38.9516 10.08 37.4606 9.11659L22.5471 0.600977C20.9452 -0.200326 19.0702 -0.200326 17.4683 0.600977L2.53944 9.11659Z" fill="#3FA0E0" fill-opacity="0.2"/>
<path d="M2.53944 9.11659L2.04396 8.24797L2.01996 8.26167L1.99674 8.27667L2.53944 9.11659ZM0 13.5158L-0.998359 13.4585L-1 13.4871V13.5158H0ZM0 30.4842H-1V30.5129L-0.998359 30.5415L0 30.4842ZM2.53944 34.8834L1.99674 35.7233L2.01977 35.7382L2.04358 35.7518L2.53944 34.8834ZM17.4529 43.399L16.957 44.2674L16.9809 44.2811L17.0055 44.2934L17.4529 43.399ZM22.5317 43.399L22.9791 44.2934L23.0035 44.2812L23.0272 44.2676L22.5317 43.399ZM37.4606 34.8834L37.956 35.752L37.98 35.7383L38.0033 35.7233L37.4606 34.8834ZM40 30.4842L40.9984 30.5415L41 30.5129V30.4842H40ZM40 13.5158H41V13.4871L40.9984 13.4585L40 13.5158ZM37.4606 9.11659L38.0033 8.27667L37.9802 8.26179L37.9564 8.24819L37.4606 9.11659ZM22.5471 0.600977L23.043 -0.267425L23.0191 -0.28107L22.9945 -0.29338L22.5471 0.600977ZM17.4683 0.600977L17.0209 -0.29338L16.9965 -0.281169L16.9728 -0.267645L17.4683 0.600977ZM1.99674 8.27667C0.232989 9.41627 -0.877245 11.3471 -0.998359 13.4585L0.998359 13.5731C1.08355 12.0879 1.86383 10.7437 3.08214 9.95652L1.99674 8.27667ZM-1 13.5158V30.4842H1V13.5158H-1ZM-0.998359 30.5415C-0.877245 32.6529 0.232989 34.5837 1.99674 35.7233L3.08214 34.0435C1.86383 33.2563 1.08355 31.9121 0.998359 30.4269L-0.998359 30.5415ZM2.04358 35.7518L16.957 44.2674L17.9487 42.5306L3.0353 34.015L2.04358 35.7518ZM17.0055 44.2934C18.8891 45.2355 21.0955 45.2355 22.9791 44.2934L22.0844 42.5047C20.764 43.1651 19.2206 43.1651 17.9002 42.5047L17.0055 44.2934ZM23.0272 44.2676L37.956 35.752L36.9651 34.0148L22.0363 42.5304L23.0272 44.2676ZM38.0033 35.7233C39.767 34.5837 40.8772 32.6529 40.9984 30.5415L39.0016 30.4269C38.9164 31.9121 38.1362 33.2563 36.9179 34.0435L38.0033 35.7233ZM41 30.4842V13.5158H39V30.4842H41ZM40.9984 13.4585C40.8772 11.3471 39.767 9.41627 38.0033 8.27667L36.9179 9.95652C38.1362 10.7437 38.9164 12.0879 39.0016 13.5731L40.9984 13.4585ZM37.9564 8.24819L23.043 -0.267425L22.0513 1.46938L36.9647 9.985L37.9564 8.24819ZM22.9945 -0.29338C21.1109 -1.23554 18.9045 -1.23554 17.0209 -0.29338L17.9156 1.49533C19.236 0.834889 20.7794 0.834889 22.0998 1.49533L22.9945 -0.29338ZM16.9728 -0.267645L2.04396 8.24797L3.03491 9.98522L17.9637 1.4696L16.9728 -0.267645Z" fill="#3FA0E0" fill-opacity="0.5" mask="url(#path-1-inside-1_11_102)"/>
<path d="M5.15852 11.459C3.89115 12.2473 3.08768 13.587 3 15.0584V28.9416C3.08768 30.413 3.89115 31.7527 5.15852 32.541L17.8349 39.5083C19.1966 40.1639 20.7903 40.1639 22.152 39.5083L34.8415 32.541C36.1089 31.7527 36.9123 30.413 37 28.9416V15.0584C36.9123 13.587 36.1089 12.2473 34.8415 11.459L22.1651 4.49171C20.8034 3.8361 19.2097 3.8361 17.848 4.49171L5.15852 11.459Z" fill="white"/>
<g clip-path="url(#clip0_11_102)">
<path d="M24 31L23 27" stroke="#3B3F5C" stroke-width="1.6" stroke-linecap="round" stroke-linejoin="round"/>
<path d="M16 31L17 27" stroke="#3B3F5C" stroke-width="1.6" stroke-linecap="round" stroke-linejoin="round"/>
<path d="M26.925 27H13.075C12.5247 27 11.9969 26.7814 11.6078 26.3922C11.2186 26.0031 11 25.4753 11 24.925V15.075C11 14.8025 11.0537 14.5327 11.1579 14.2809C11.2622 14.0292 11.4151 13.8004 11.6078 13.6078C11.9969 13.2186 12.5247 13 13.075 13H26.924C27.1966 12.9999 27.4665 13.0534 27.7184 13.1577C27.9702 13.2619 28.1991 13.4147 28.3919 13.6074C28.5847 13.8001 28.7376 14.0289 28.842 14.2807C28.9463 14.5325 29 14.8024 29 15.075V24.924C29.0001 25.1966 28.9466 25.4665 28.8423 25.7184C28.7381 25.9702 28.5853 26.1991 28.3926 26.3919C28.1999 26.5847 27.9711 26.7376 27.7193 26.842C27.4675 26.9463 27.1976 27 26.925 27V27Z" stroke="#3B3F5C" stroke-width="1.6" stroke-linecap="round" stroke-linejoin="round"/>
<path d="M15.5 20.25H18.5V24H15.5V20.25Z" stroke="#3B3F5C" stroke-width="1.6" stroke-linecap="round" stroke-linejoin="round"/>
<path d="M18.5 16H21.5V24H18.5V16Z" stroke="#3B3F5C" stroke-width="1.6" stroke-linecap="round" stroke-linejoin="round"/>
<path d="M21.5 18.25H24.5V24H21.5V18.25Z" stroke="#3B3F5C" stroke-width="1.6" stroke-linecap="round" stroke-linejoin="round"/>
</g>
<defs>
<clipPath id="clip0_11_102">
<rect width="24" height="24" fill="white" transform="translate(8 10)"/>
</clipPath>
</defs>
</svg>
