<svg width="522" height="134" viewBox="0 0 522 134" fill="none" xmlns="http://www.w3.org/2000/svg">
<g clip-path="url(#clip0_15_158)">
<path d="M88.92 0L66.69 22.23L44.46 44.46L22.23 22.23H0V44.46L22.23 66.69L44.46 88.92L66.69 66.69L88.92 44.46L111.15 22.23L88.92 0Z" fill="#009DBC"/>
<path d="M44.46 0L22.23 22.23L0 44.46V88.92L22.23 66.69L44.46 44.46L88.92 88.92V44.46L44.46 0Z" fill="#E6E7E8"/>
<path d="M44.46 88.9199L22.23 111.15L44.46 133.38L66.69 111.15L44.46 88.9199Z" fill="#E6E7E8"/>
<path d="M44.48 44.4895L66.71 22.2595L44.48 0.0195312H44.47V44.4895H44.48Z" fill="#F1F2F2"/>
<path d="M88.95 0.0195312L66.71 22.2595L44.48 44.4895L44.47 44.4995V88.9695H44.48L66.71 66.7295L88.95 44.4895L111.19 22.2595L88.95 0.0195312Z" fill="#009DBC"/>
<path d="M88.95 88.9693V44.4893L66.71 66.7293L88.95 88.9693Z" fill="#F1F2F2"/>
<path d="M44.47 133.44L66.71 111.21L44.48 88.9697H44.47V133.44Z" fill="#F1F2F2"/>
<path d="M0 22.2598V44.4898L22.24 22.2598H0Z" fill="#45A2BC"/>
<path d="M22.24 22.2595L0 44.4895V88.9695L22.24 66.7295L44.47 44.4995V44.4895V0.0195312L22.24 22.2595Z" fill="white"/>
<path d="M44.47 88.97V44.5L22.24 66.73L44.47 88.97Z" fill="#45A2BC"/>
<path d="M22.24 111.21L44.47 133.44V88.9697L22.24 111.21Z" fill="white"/>
<path d="M396.57 22.2598C409.4 22.2598 420.18 26.6498 428.91 35.4398C437.64 44.2298 442 54.6898 442 66.8198C442 78.9498 437.64 89.2398 428.91 98.0698C420.18 106.89 409.4 111.3 396.57 111.3C383.74 111.3 373.09 106.89 364.27 98.0698C355.45 89.2498 351.04 78.8298 351.04 66.8198C351.04 54.8098 355.45 44.2298 364.27 35.4398C373.09 26.6498 383.85 22.2598 396.57 22.2598ZM376 45.1098C370.2 50.9698 367.3 58.1998 367.3 66.8198C367.3 75.4398 370.2 82.5498 376 88.3498C381.8 94.1498 388.66 97.0498 396.57 97.0498C404.48 97.0498 411.26 94.1498 417.09 88.3498C422.92 82.5498 425.84 75.3698 425.84 66.8198C425.84 58.2698 422.92 50.9698 417.09 45.1098C411.26 39.2498 404.42 36.3198 396.57 36.3198C388.72 36.3198 381.8 39.2498 376 45.1098Z" fill="white"/>
<path d="M177.37 88.1798C171.45 94.0998 164.57 97.0598 156.72 97.0598C148.87 97.0598 142.04 94.1498 136.24 88.3098C132.26 84.3098 129.68 79.6598 128.43 74.3798H181.38V59.1798H128.39C129.63 53.8198 132.22 49.0998 136.23 45.0698C142.03 39.2398 148.86 36.3198 156.71 36.3198C164.56 36.3198 171.33 39.1298 177.01 44.7598C177.77 45.5798 179.21 47.3098 181.32 49.9498L192.34 39.0398C191.09 37.5298 189.97 36.2698 188.97 35.2698C180.3 26.5998 169.55 22.2598 156.71 22.2598C143.87 22.2598 133.23 26.6498 124.41 35.4398C115.59 44.2298 111.18 54.6598 111.18 66.7298C111.18 78.7998 115.59 89.2398 124.41 98.0598C133.23 106.88 143.99 111.29 156.71 111.29C169.43 111.29 180.41 106.81 189.32 97.8398C190.16 96.9698 191.15 95.8298 192.28 94.4498L181.32 83.5198C179.21 86.0998 177.89 87.6498 177.37 88.1798Z" fill="white"/>
<path d="M341.23 83.52C339.12 86.1 337.8 87.65 337.27 88.18C331.35 94.1 324.47 97.05 316.62 97.05C308.77 97.05 301.94 94.14 296.14 88.3C290.34 82.47 287.44 75.28 287.44 66.72C287.44 58.16 290.34 50.89 296.14 45.06C301.94 39.23 308.76 36.31 316.62 36.31C324.48 36.31 331.23 39.12 336.92 44.75C337.68 45.57 339.12 47.3 341.23 49.94L352.25 39.03C351 37.52 349.88 36.26 348.88 35.26C340.21 26.59 329.46 22.25 316.63 22.25C303.8 22.25 293.15 26.64 284.33 35.43C275.51 44.22 271.1 54.65 271.1 66.72C271.1 78.79 275.51 89.24 284.33 98.05C293.15 106.87 303.91 111.28 316.63 111.28C329.35 111.28 340.32 106.8 349.23 97.83C350.07 96.96 351.06 95.82 352.19 94.44L341.23 83.5V83.52Z" fill="white"/>
<path d="M261.28 83.5198C259.17 86.0998 257.85 87.6498 257.32 88.1798C251.4 94.0998 244.52 97.0598 236.67 97.0598C228.82 97.0598 221.99 94.1498 216.19 88.3098C210.39 82.4798 207.49 75.2898 207.49 66.7298C207.49 58.1698 210.39 50.8998 216.19 45.0698C221.99 39.2398 228.81 36.3198 236.67 36.3198C244.53 36.3198 251.29 39.1298 256.97 44.7598C257.73 45.5798 259.17 47.3098 261.28 49.9498L272.3 39.0398C271.05 37.5298 269.93 36.2698 268.93 35.2698C260.26 26.5998 249.51 22.2598 236.68 22.2598C223.85 22.2598 213.2 26.6498 204.38 35.4398C195.56 44.2298 191.15 54.6598 191.15 66.7298C191.15 78.7998 195.56 89.2398 204.38 98.0598C213.2 106.88 223.96 111.29 236.68 111.29C249.4 111.29 260.38 106.81 269.28 97.8398C270.12 96.9698 271.11 95.8298 272.24 94.4498L261.29 83.5198H261.28Z" fill="white"/>
<path d="M485.96 66.7098L520.73 23.7498L521.94 22.2598H520.02H503.42H502.99L502.72 22.5998L476.47 55.0298L450.22 22.5998L449.95 22.2598H449.51H432.92H431L432.21 23.7498L466.97 66.7098L432.21 109.66L431 111.15H432.92H449.51H449.95L450.22 110.81L476.47 78.3798L502.72 110.81L502.99 111.15H503.42H520.02H521.94L520.73 109.66L485.96 66.7098Z" fill="white"/>
</g>
<defs>
<clipPath id="clip0_15_158">
<rect width="521.94" height="133.44" fill="white"/>
</clipPath>
</defs>
</svg>
