<svg width="139" height="28" viewBox="0 0 139 28" fill="none" xmlns="http://www.w3.org/2000/svg">
<path d="M22.6161 7.00643H7.72728L11.6851 0.000176263L22.6161 7.00643Z" fill="#51A6E3"/>
<path d="M11.299 13.3213H22.6162V21.4115L17.4019 17.6843L11.299 13.3213Z" fill="white"/>
<path d="M11.9646 28L17.4019 17.6843L22.6162 21.4115L11.9646 28Z" fill="#51A6E3"/>
<path d="M14.1488 21.0347L10.8503 27.6108L10.537 27.0631L7.31987 20.9718L7.30783 20.9498L14.1488 21.0347Z" fill="white"/>
<path d="M10.8413 27.6361L0 21.0789L0.00602461 7.13035L7.30783 20.9498L7.31987 20.9718L10.537 27.0631L10.8413 27.6361Z" fill="#51A6E3"/>
<path d="M11.6757 0L4.42203 12.938L0.945833 6.57291L11.6757 0Z" fill="white"/>
<path d="M107.707 20.8937C106.405 19.7255 105.6 18.2933 105.572 16.4027C106.207 16.4027 106.82 16.4027 107.475 16.4027C107.531 17.4958 107.921 18.4308 108.707 19.1615C109.357 19.7662 110.117 20.1055 110.977 20.1716C112.561 20.2934 114.096 19.5888 114.831 17.953C115.505 16.4502 115.147 14.8012 113.856 13.5134C113.767 13.4355 113.716 13.406 113.665 13.3766C113.665 13.3766 113.65 13.3592 113.621 13.3231C112.891 12.7624 112.105 12.5373 111.252 12.524C111.07 12.5212 110.89 12.4436 110.709 12.4005C110.709 12.4005 110.708 12.4077 110.701 12.3779C110.668 12.3221 110.641 12.2959 110.615 12.2698C110.615 12.2698 110.621 12.226 110.624 12.1679C110.587 12.0477 110.548 11.9856 110.509 11.9236C110.343 11.5771 110.177 11.2306 109.946 10.7498C110.474 10.2362 111.035 9.69034 111.662 9.10982C111.659 9.01342 111.591 8.89888 111.52 8.89773C110.257 8.87697 108.993 8.86994 107.729 8.85996C107.729 8.37013 107.706 7.87824 107.744 7.39179C107.755 7.25398 107.945 7.02008 108.054 7.01925C110.809 6.99844 113.564 7.00288 116.474 7.00288C115.157 8.31676 113.94 9.53155 112.678 10.7903C114.101 11.192 115.235 11.9525 116.08 13.1546C117.6 11.6127 119.103 10.0832 120.612 8.55965C121.048 8.11923 121.493 7.6887 121.948 7.26925C122.074 7.15211 122.245 7.02071 122.399 7.01558C123.173 6.98982 123.948 7.00377 124.872 7.00377C123.609 8.26598 122.456 9.4192 121.236 10.6389C123.079 10.8422 124.554 11.6145 125.668 13.1753C127.051 11.4727 128.747 10.497 130.9 10.6679C133.037 10.8376 134.622 11.9611 135.702 13.974C135.726 14.0699 135.747 14.1006 135.768 14.1313C135.768 14.1313 135.775 14.1405 135.78 14.1887C136.501 16.2114 136.249 18.0497 135.065 19.7873C134.165 20.9124 133.072 21.6334 131.741 21.927C129.898 22.3333 128.232 21.8816 126.718 20.7293C126.718 20.7293 126.694 20.6904 126.668 20.6708C126.631 20.6332 126.615 20.6259 126.594 20.6294C126.594 20.6294 126.583 20.6002 126.564 20.5714C126.525 20.5123 126.499 20.5025 126.466 20.5133C126.466 20.5133 126.457 20.507 126.45 20.4762C126.423 20.4085 126.394 20.3938 126.354 20.4013C126.354 20.4013 126.348 20.4008 126.341 20.3657C126.285 20.2973 126.237 20.264 126.189 20.2306C126.189 20.2306 126.194 20.2199 126.185 20.1886C126.113 20.0987 126.05 20.0401 125.988 19.9814C125.889 19.8556 125.791 19.7298 125.672 19.5765C124.621 21.001 123.287 21.8493 121.615 22.0494C119.719 22.2762 118.073 21.6995 116.696 20.2886C116.609 20.1993 116.502 20.1315 116.397 19.9872C116.358 19.8946 116.327 19.8684 116.296 19.8423C116.296 19.8423 116.278 19.8571 116.277 19.8088C116.01 19.4786 115.913 19.7808 115.79 19.9303C114.932 20.9739 113.863 21.6353 112.588 21.9294C111.178 22.2546 109.835 22.0068 108.533 21.4013C108.533 21.4013 108.517 21.3875 108.487 21.3568C108.316 21.2532 108.176 21.1803 108.036 21.1074C108.036 21.1074 108.034 21.1139 108.028 21.0791C107.963 21.0186 107.906 20.993 107.848 20.9674C107.848 20.9674 107.82 20.9927 107.822 20.947C107.785 20.8987 107.746 20.8962 107.707 20.8937ZM123.493 13.5761C123.493 13.5761 123.443 13.5563 123.435 13.5244C123.421 13.5039 123.402 13.4969 123.369 13.4818C123.369 13.4818 123.348 13.4713 123.333 13.4201C123.308 13.3882 123.277 13.3796 123.224 13.4107C123.224 13.4107 123.237 13.3903 123.228 13.3338C123.18 13.31 123.133 13.2862 123.066 13.2354C123.066 13.2354 123.035 13.228 122.993 13.1691C121.93 12.4809 120.8 12.3502 119.621 12.7499C117.505 13.467 116.426 15.9433 117.388 17.878C117.388 17.878 117.394 17.889 117.386 17.9492C117.419 17.997 117.451 18.0447 117.491 18.108C117.491 18.108 117.501 18.1211 117.503 18.1833C117.54 18.2274 117.577 18.2714 117.63 18.3064C117.63 18.3064 117.619 18.3214 117.623 18.3899C117.667 18.436 117.71 18.4821 117.784 18.5957C118.792 19.869 120.068 20.4104 121.621 20.1123C123.05 19.8382 124.086 19.0113 124.544 17.5232C124.963 16.161 124.673 14.9327 123.751 13.8127C123.705 13.7804 123.659 13.7481 123.592 13.6799C123.592 13.6799 123.552 13.6711 123.546 13.6507C123.546 13.6507 123.512 13.6286 123.493 13.5761ZM129.787 12.6271C127.994 12.9879 126.713 14.4309 126.647 16.1656C126.546 18.815 129.012 20.7432 131.507 20.0646C133.835 19.4317 135.032 16.5038 133.761 14.4684C133.065 13.3535 131.278 12.301 129.787 12.6271Z" fill="#51A6E3"/>
<path d="M138.6 8.88716C138.6 9.92941 137.755 10.7743 136.713 10.7743C135.671 10.7743 134.826 9.92941 134.826 8.88716C134.826 7.84491 135.671 7 136.713 7C137.755 7 138.6 7.84491 138.6 8.88716Z" fill="#51A6E3"/>
<path d="M31.6638 14.2902C31.6638 12.7427 31.973 11.3955 32.5913 10.2487C33.2097 9.08808 34.1021 8.18998 35.2686 7.5544C36.435 6.90501 37.8474 6.58031 39.5057 6.58031C40.2646 6.58031 40.9392 6.64249 41.5295 6.76684C42.1197 6.87738 42.6256 7.03627 43.0473 7.24352V9.15026H42.8786C42.4992 8.95682 42.0213 8.78411 41.4451 8.63212C40.8689 8.48014 40.2225 8.40415 39.5057 8.40415C37.735 8.40415 36.3366 8.88083 35.3107 9.8342C34.2848 10.7737 33.7719 12.2591 33.7719 14.2902C33.7719 15.6718 33.9967 16.8048 34.4464 17.6891C34.8961 18.5596 35.5356 19.209 36.3647 19.6373C37.1939 20.0518 38.1847 20.2591 39.3371 20.2591C39.7587 20.2591 40.1663 20.2245 40.5598 20.1554C40.9533 20.0725 41.3187 19.9827 41.6559 19.886L41.1922 20.7979V14.2073H43.2159V21.171C42.7521 21.4197 42.1759 21.62 41.4873 21.772C40.8127 21.924 40.096 22 39.3371 22C37.6225 22 36.1961 21.6822 35.0578 21.0466C33.9194 20.3972 33.0692 19.4991 32.507 18.3523C31.9449 17.1917 31.6638 15.8377 31.6638 14.2902Z" fill="white"/>
<path d="M52.9869 21.9171C51.9188 21.9171 50.9842 21.7927 50.1832 21.544C49.3962 21.2815 48.7356 20.9016 48.2016 20.4041C47.6816 19.9067 47.2951 19.2988 47.0422 18.5803C46.7892 17.848 46.6627 17.0121 46.6627 16.0725C46.6627 14.8981 46.8806 13.8756 47.3162 13.0052C47.7659 12.1209 48.3843 11.437 49.1713 10.9534C49.9724 10.4698 50.9069 10.228 51.975 10.228C53.2117 10.228 54.2095 10.4767 54.9684 10.9741C55.7273 11.4715 56.2684 12.1693 56.5916 13.0674C56.9289 13.9655 57.0765 15.0086 57.0343 16.1969L57.0132 16.7772H48.0119V15.2021H55.0106V15.0363C55.0106 14 54.7576 13.2193 54.2517 12.6943C53.7458 12.1554 52.9869 11.886 51.975 11.886C51.3847 11.886 50.8367 12.0104 50.3307 12.2591C49.8248 12.5078 49.4172 12.9292 49.1081 13.5233C48.7989 14.1174 48.6443 14.9257 48.6443 15.9482V16.0725C48.6443 17.1364 48.834 17.9724 49.2135 18.5803C49.5929 19.1883 50.1129 19.6235 50.7734 19.886C51.448 20.1347 52.2139 20.2591 53.0712 20.2591C53.7879 20.2591 54.3993 20.19 54.9052 20.0518C55.4111 19.9136 55.8116 19.7617 56.1068 19.5959H56.2754V21.2953C55.9381 21.4611 55.4954 21.6062 54.9473 21.7306C54.3993 21.8549 53.7458 21.9171 52.9869 21.9171Z" fill="white"/>
<path d="M59.3991 19.513H59.5678C60.0737 19.734 60.6429 19.9136 61.2753 20.0518C61.9217 20.19 62.5612 20.2591 63.1936 20.2591C63.3903 20.2591 63.6503 20.2522 63.9736 20.2383C64.3109 20.2107 64.6481 20.1485 64.9854 20.0518C65.3368 19.9551 65.6319 19.7893 65.8708 19.5544C66.1097 19.3057 66.2292 18.9603 66.2292 18.5181C66.2292 18.0207 66.0254 17.6684 65.6179 17.4611C65.2103 17.2539 64.6481 17.095 63.9314 16.9845L62.9195 16.8187C61.725 16.6252 60.8396 16.2936 60.2634 15.8238C59.6872 15.3402 59.3991 14.6632 59.3991 13.7927C59.3991 13.1848 59.5607 12.6183 59.884 12.0933C60.2212 11.5544 60.7553 11.1261 61.4861 10.8083C62.2309 10.4767 63.2217 10.3109 64.4584 10.3109C65.0065 10.3109 65.5335 10.3592 66.0395 10.456C66.5594 10.5389 66.9881 10.6425 67.3254 10.7668V12.4663H67.1567C66.693 12.3005 66.2503 12.1762 65.8287 12.0933C65.407 12.0104 64.9222 11.9689 64.3741 11.9689C63.4044 11.9689 62.6385 12.1071 62.0763 12.3834C61.5282 12.6459 61.2542 13.095 61.2542 13.7306C61.2542 14.2142 61.4509 14.5596 61.8444 14.7668C62.252 14.9741 62.8141 15.133 63.5309 15.2435L64.5427 15.4093C65.1892 15.506 65.7795 15.6788 66.3135 15.9275C66.8475 16.1762 67.2762 16.5147 67.5994 16.943C67.9226 17.3575 68.0843 17.8826 68.0843 18.5181C68.0843 19.6373 67.6767 20.487 66.8616 21.0674C66.0465 21.6339 64.7957 21.9171 63.1093 21.9171C62.3925 21.9171 61.718 21.8618 61.0855 21.7513C60.4672 21.6408 59.905 21.5026 59.3991 21.3368V19.513Z" fill="white"/>
<path d="M74.9117 21.9171C73.9279 21.9171 73.1409 21.7651 72.5507 21.4611C71.9604 21.1434 71.5318 20.7081 71.2648 20.1554C70.9978 19.5889 70.8643 18.9326 70.8643 18.1865V7.40933H72.8036V18.0207C72.8036 18.8083 72.9793 19.3817 73.3307 19.7409C73.682 20.0864 74.2371 20.2591 74.996 20.2591C75.2912 20.2591 75.5792 20.2314 75.8603 20.1762C76.1414 20.1071 76.3873 20.0242 76.5981 19.9275H76.7668V21.544C76.556 21.6408 76.289 21.7237 75.9657 21.7927C75.6425 21.8756 75.2911 21.9171 74.9117 21.9171ZM69.0935 12.1347V10.4767H76.0922V12.1347H69.0935Z" fill="white"/>
<path d="M83.4641 22C81.8198 22 80.5831 21.7098 79.754 21.1295C78.9388 20.5354 78.5313 19.6373 78.5313 18.4352C78.5313 17.6339 78.728 16.9706 79.1215 16.4456C79.5291 15.9206 80.0983 15.5268 80.829 15.2642C81.5739 15.0017 82.4522 14.8705 83.4641 14.8705C84.2511 14.8705 84.9046 14.9396 85.4246 15.0777C85.9586 15.2021 86.4154 15.3264 86.7948 15.4508V16.943C86.4154 16.8187 85.9446 16.7081 85.3824 16.6114C84.8203 16.5009 84.2933 16.4456 83.8014 16.4456C82.6631 16.4456 81.8128 16.5907 81.2507 16.8808C80.7026 17.171 80.4285 17.6891 80.4285 18.4352C80.4285 19.1399 80.6955 19.6511 81.2296 19.9689C81.7636 20.2729 82.5366 20.4249 83.5484 20.4249C84.1106 20.4249 84.6516 20.3834 85.1716 20.3005C85.6916 20.2038 86.1765 20.0794 86.6262 19.9275L86.2467 20.487C86.2186 20.3765 86.1905 20.2522 86.1624 20.114C86.1484 19.9758 86.1343 19.8307 86.1202 19.6788C86.1062 19.5268 86.0921 19.3679 86.0781 19.2021C86.0781 19.0363 86.0781 18.8636 86.0781 18.6839V14.9534C86.0781 14.0691 85.9516 13.4128 85.6986 12.9845C85.4597 12.5423 85.0943 12.2522 84.6025 12.114C84.1246 11.962 83.5203 11.886 82.7895 11.886C82.2414 11.886 81.6793 11.9551 81.1031 12.0933C80.541 12.2314 80.0912 12.3834 79.754 12.5492H79.5853V10.8497C80.0912 10.6425 80.6534 10.4905 81.2717 10.3938C81.9042 10.2832 82.4944 10.228 83.0425 10.228C83.7452 10.228 84.3917 10.2902 84.9819 10.4145C85.5862 10.5389 86.1132 10.7668 86.5629 11.0984C87.0267 11.4162 87.3851 11.8791 87.638 12.487C87.891 13.095 88.0175 13.8895 88.0175 14.8705V17.6062C88.0175 17.8826 88.0175 18.2418 88.0175 18.6839C88.0315 19.1261 88.0456 19.5613 88.0597 19.9896C88.0878 20.418 88.1299 20.7565 88.1861 21.0052L88.144 21.171C87.6802 21.3368 87.1672 21.4819 86.6051 21.6062C86.043 21.7306 85.4808 21.8273 84.9187 21.8964C84.3706 21.9655 83.8857 22 83.4641 22ZM80.0702 8.65285C80.0702 8.15544 80.1474 7.70639 80.302 7.3057C80.4707 6.90501 80.7096 6.58722 81.0188 6.35233C81.342 6.11744 81.7285 6 82.1782 6C82.5998 6 82.9582 6.0829 83.2533 6.24871C83.5484 6.41451 83.8084 6.60794 84.0333 6.82902C84.2019 6.99482 84.3706 7.13299 84.5392 7.24352C84.7079 7.35406 84.9046 7.40933 85.1295 7.40933C85.4668 7.40933 85.6916 7.27116 85.804 6.99482C85.9165 6.70466 85.9727 6.37306 85.9727 6H87.2375C87.2375 6.49741 87.1532 6.94646 86.9846 7.34715C86.83 7.74784 86.591 8.06563 86.2678 8.30052C85.9586 8.53541 85.5792 8.65285 85.1295 8.65285C84.7079 8.65285 84.3495 8.56995 84.0544 8.40415C83.7592 8.23834 83.4992 8.04491 83.2744 7.82383C83.1057 7.65803 82.9371 7.51986 82.7685 7.40933C82.6139 7.29879 82.4171 7.24352 82.1782 7.24352C81.8409 7.24352 81.6161 7.3886 81.5036 7.67876C81.3912 7.9551 81.335 8.27979 81.335 8.65285H80.0702Z" fill="white"/>
<path d="M91.1236 16.0725C91.1236 14.8428 91.3414 13.7927 91.7771 12.9223C92.2268 12.0518 92.8451 11.3886 93.6321 10.9326C94.4332 10.4629 95.3537 10.228 96.3937 10.228C97.4337 10.228 98.3471 10.4629 99.1341 10.9326C99.9352 11.3886 100.554 12.0518 100.989 12.9223C101.439 13.7927 101.664 14.8428 101.664 16.0725C101.664 17.3022 101.439 18.3523 100.989 19.2228C100.554 20.0933 99.9352 20.7634 99.1341 21.2332C98.3471 21.6891 97.4337 21.9171 96.3937 21.9171C95.3256 21.9171 94.3981 21.6891 93.6111 21.2332C92.8241 20.7634 92.2127 20.0933 91.7771 19.2228C91.3414 18.3523 91.1236 17.3022 91.1236 16.0725ZM93.1051 16.0725C93.1051 17.4542 93.3862 18.4974 93.9483 19.2021C94.5245 19.9067 95.3397 20.2591 96.3937 20.2591C97.4477 20.2591 98.2558 19.9067 98.8179 19.2021C99.3941 18.4974 99.6822 17.4542 99.6822 16.0725C99.6822 14.677 99.3941 13.6339 98.8179 12.943C98.2558 12.2383 97.4477 11.886 96.3937 11.886C95.3397 11.886 94.5245 12.2383 93.9483 12.943C93.3862 13.6339 93.1051 14.677 93.1051 16.0725Z" fill="white"/>
</svg>
