<svg width="405" height="213" viewBox="0 0 405 213" fill="none" xmlns="http://www.w3.org/2000/svg">
<path d="M256.773 73.2531C252.567 75.6131 248.113 76.7932 243.412 76.7932C240.443 76.7932 237.778 76.2888 235.418 75.2801C233.058 74.2523 231.05 72.8343 229.394 71.0262C227.738 69.199 226.463 67.0293 225.569 64.5169C224.693 61.9855 224.255 59.2067 224.255 56.1805C224.255 54.182 224.465 52.2597 224.883 50.4135C225.321 48.5673 225.949 46.8353 226.768 45.2175C227.605 43.5997 228.623 42.1341 229.823 40.8209C231.022 39.5076 232.392 38.3751 233.934 37.4235C235.494 36.4718 237.207 35.7391 239.073 35.2252C240.938 34.7113 242.946 34.4543 245.096 34.4543C249.15 34.4543 252.767 35.1776 255.945 36.6241V40.8209C252.443 38.8795 248.675 37.9088 244.64 37.9088C242.146 37.9088 239.891 38.3656 237.873 39.2792C235.856 40.1928 234.133 41.449 232.706 43.0477C231.298 44.6465 230.203 46.5403 229.423 48.7291C228.642 50.8988 228.243 53.2589 228.224 55.8093C228.205 58.3407 228.528 60.6818 229.194 62.8325C229.88 64.9642 230.888 66.8104 232.221 68.3711C233.553 69.9318 235.199 71.1499 237.16 72.0254C239.12 72.9009 241.385 73.3387 243.954 73.3387C247.418 73.3387 250.426 72.6154 252.976 71.1689V58.6928H243.669V55.2383H256.773V73.2531Z" fill="#27ABE9"/>
<path d="M267.394 62.1188C267.413 63.9079 267.651 65.5162 268.107 66.9436C268.564 68.3711 269.221 69.5797 270.077 70.5694C270.934 71.5591 271.971 72.3204 273.189 72.8534C274.426 73.3673 275.816 73.6242 277.357 73.6242C280.65 73.6242 283.762 72.4727 286.693 70.1697V73.7669C283.895 75.7654 280.507 76.7646 276.529 76.7646C274.569 76.7646 272.789 76.422 271.191 75.7369C269.592 75.0517 268.231 74.062 267.108 72.7677C265.985 71.4544 265.119 69.8462 264.51 67.9429C263.901 66.0396 263.597 63.8698 263.597 61.4336C263.597 59.2448 263.93 57.2178 264.596 55.3525C265.262 53.4873 266.185 51.879 267.365 50.5277C268.545 49.1573 269.944 48.0915 271.562 47.3301C273.18 46.5498 274.95 46.1596 276.872 46.1596C278.756 46.1596 280.422 46.4927 281.868 47.1589C283.315 47.806 284.523 48.7386 285.494 49.9567C286.484 51.1748 287.235 52.6594 287.749 54.4104C288.263 56.1614 288.52 58.1218 288.52 60.2916V62.1188H267.394ZM284.752 58.9212C284.695 55.876 283.971 53.5159 282.582 51.841C281.192 50.1661 279.261 49.3286 276.786 49.3286C275.549 49.3286 274.398 49.5475 273.332 49.9852C272.285 50.423 271.362 51.0606 270.563 51.8981C269.763 52.7165 269.097 53.7252 268.564 54.9243C268.05 56.1043 267.689 57.4367 267.479 58.9212H284.752Z" fill="#27ABE9"/>
<path d="M294.03 70.8263C294.582 71.2641 295.182 71.6543 295.829 71.9969C296.476 72.3395 297.142 72.6345 297.827 72.8819C298.512 73.1293 299.198 73.3197 299.883 73.4529C300.587 73.5671 301.253 73.6242 301.881 73.6242C306.221 73.6242 308.391 71.9969 308.391 68.7422C308.391 68 308.238 67.3623 307.934 66.8294C307.629 66.2775 307.192 65.7826 306.621 65.3449C306.05 64.8881 305.364 64.4693 304.565 64.0887C303.766 63.708 302.862 63.3083 301.853 62.8896C300.501 62.3376 299.34 61.7762 298.37 61.2052C297.399 60.6342 296.6 60.0156 295.972 59.3495C295.344 58.6643 294.877 57.922 294.573 57.1226C294.268 56.3042 294.116 55.3811 294.116 54.3533C294.116 53.0591 294.392 51.9076 294.944 50.8988C295.515 49.8901 296.276 49.0336 297.228 48.3294C298.179 47.6252 299.274 47.0922 300.511 46.7306C301.767 46.35 303.08 46.1596 304.451 46.1596C306.982 46.1596 309.19 46.6354 311.074 47.5871V51.4413C308.885 50.0328 306.525 49.3286 303.994 49.3286C303.08 49.3286 302.243 49.4428 301.482 49.6712C300.739 49.8996 300.102 50.2232 299.569 50.6419C299.036 51.0606 298.617 51.565 298.313 52.155C298.027 52.726 297.884 53.3636 297.884 54.0678C297.884 54.7911 297.999 55.4287 298.227 55.9806C298.455 56.5136 298.808 56.9989 299.283 57.4367C299.778 57.8744 300.406 58.2931 301.168 58.6928C301.948 59.0925 302.89 59.5208 303.994 59.9776C305.402 60.5485 306.621 61.1195 307.648 61.6905C308.676 62.2425 309.523 62.8515 310.189 63.5177C310.855 64.1648 311.35 64.8976 311.674 65.716C311.997 66.5154 312.159 67.448 312.159 68.5138C312.159 69.8271 311.883 70.9976 311.331 72.0254C310.798 73.0532 310.046 73.9192 309.076 74.6234C308.124 75.3276 307.001 75.8606 305.707 76.2222C304.413 76.5838 303.004 76.7646 301.482 76.7646C298.532 76.7646 296.048 76.1461 294.03 74.9089V70.8263Z" fill="#27ABE9"/>
<path d="M332.001 75.7369C330.745 76.3649 329.374 76.679 327.89 76.679C323.17 76.679 320.81 73.9573 320.81 68.5138V50.0423H315.671V46.8448H320.81V39.479L324.464 38.28V46.8448H332.001V50.0423H324.464V67.9429C324.464 69.9223 324.788 71.3498 325.435 72.2253C326.082 73.1008 327.176 73.5385 328.718 73.5385C329.86 73.5385 330.954 73.196 332.001 72.5108V75.7369Z" fill="#27ABE9"/>
<path d="M354.898 76.0794V70.8834H354.783C353.832 72.7487 352.528 74.1952 350.872 75.223C349.235 76.2507 347.38 76.7646 345.305 76.7646C343.897 76.7646 342.621 76.5648 341.479 76.1651C340.356 75.7654 339.395 75.2039 338.596 74.4807C337.816 73.7384 337.207 72.8534 336.769 71.8256C336.35 70.7978 336.141 69.6653 336.141 68.4282C336.141 65.7826 336.959 63.6795 338.596 62.1188C340.233 60.539 342.707 59.5112 346.019 59.0354L354.898 57.7507C354.898 52.136 352.718 49.3286 348.36 49.3286C344.953 49.3286 341.793 50.5753 338.881 53.0686V49.0717C339.49 48.6339 340.176 48.2437 340.937 47.9011C341.717 47.5395 342.536 47.235 343.392 46.9876C344.249 46.7211 345.124 46.5212 346.019 46.388C346.932 46.2358 347.817 46.1596 348.674 46.1596C351.929 46.1596 354.384 47.0732 356.04 48.9004C357.715 50.7275 358.552 53.4492 358.552 57.0655V76.0794H354.898ZM347.361 61.8904C346.047 62.0807 344.924 62.3186 343.992 62.6041C343.059 62.8896 342.288 63.2798 341.679 63.7746C341.07 64.2505 340.623 64.85 340.337 65.5732C340.052 66.2775 339.909 67.153 339.909 68.1998C339.909 68.9802 340.042 69.7034 340.309 70.3696C340.594 71.0357 340.994 71.6162 341.508 72.1111C342.041 72.5869 342.678 72.958 343.421 73.2245C344.182 73.491 345.039 73.6242 345.99 73.6242C347.284 73.6242 348.474 73.3768 349.559 72.8819C350.644 72.3871 351.576 71.7019 352.357 70.8263C353.156 69.9508 353.775 68.904 354.212 67.6859C354.669 66.4678 354.898 65.145 354.898 63.7175V60.834L347.361 61.8904ZM357.153 34.9682C357.153 35.9389 357.029 36.824 356.782 37.6233C356.554 38.4227 356.22 39.1174 355.783 39.7074C355.345 40.2784 354.812 40.7257 354.184 41.0493C353.556 41.3728 352.842 41.5346 352.043 41.5346C350.748 41.5346 349.264 40.9256 347.589 39.7074C346.257 38.7748 345.124 38.3085 344.192 38.3085C342.383 38.3085 341.479 39.5266 341.479 41.9629H339.11C339.11 40.9922 339.224 40.1071 339.452 39.3078C339.7 38.5084 340.042 37.8232 340.48 37.2522C340.918 36.6812 341.451 36.2434 342.079 35.9389C342.707 35.6154 343.421 35.4536 344.22 35.4536C345.514 35.4536 346.98 36.0436 348.617 37.2236C349.968 38.1943 351.139 38.6797 352.128 38.6797C352.909 38.6797 353.527 38.3751 353.984 37.7661C354.46 37.138 354.698 36.2054 354.698 34.9682H357.153Z" fill="#27ABE9"/>
<path d="M379.307 76.7646C377.138 76.7646 375.187 76.403 373.455 75.6798C371.742 74.9565 370.276 73.9382 369.058 72.625C367.84 71.2927 366.907 69.7034 366.26 67.8572C365.613 66.011 365.29 63.965 365.29 61.7191C365.29 59.2829 365.632 57.1036 366.317 55.1812C367.003 53.2589 367.973 51.6316 369.229 50.2993C370.505 48.948 372.037 47.9202 373.826 47.216C375.615 46.5117 377.614 46.1596 379.821 46.1596C381.934 46.1596 383.837 46.5117 385.531 47.216C387.225 47.9011 388.662 48.9004 389.842 50.2136C391.022 51.5269 391.926 53.1257 392.554 55.01C393.182 56.8942 393.497 59.0354 393.497 61.4336C393.497 63.7175 393.163 65.8016 392.497 67.6859C391.85 69.5511 390.918 71.1594 389.699 72.5108C388.481 73.8621 386.997 74.9089 385.246 75.6512C383.495 76.3935 381.515 76.7646 379.307 76.7646ZM379.593 49.3286C377.994 49.3286 376.548 49.6046 375.253 50.1565C373.959 50.7085 372.846 51.5174 371.913 52.5832C371 53.6301 370.295 54.9243 369.8 56.466C369.306 57.9886 369.058 59.7206 369.058 61.662C369.058 63.4891 369.306 65.1355 369.8 66.601C370.295 68.0666 370.99 69.3227 371.885 70.3696C372.798 71.4164 373.902 72.2253 375.196 72.7963C376.491 73.3482 377.937 73.6242 379.536 73.6242C381.173 73.6242 382.619 73.3577 383.875 72.8248C385.132 72.2729 386.197 71.483 387.073 70.4552C387.948 69.4084 388.605 68.1332 389.043 66.6296C389.5 65.126 389.728 63.413 389.728 61.4907C389.728 57.5509 388.852 54.5436 387.101 52.4691C385.35 50.3754 382.848 49.3286 379.593 49.3286Z" fill="#27ABE9"/>
<path d="M227.122 176.623C219.156 169.703 214.235 161.22 214.063 150.022C217.947 150.022 221.699 150.022 225.7 150.022C226.042 156.496 228.43 162.035 233.236 166.363C237.212 169.944 241.864 171.954 247.12 172.345C256.81 173.067 266.203 168.893 270.694 159.205C274.82 150.303 272.627 140.536 264.733 132.908C264.187 132.446 263.874 132.272 263.561 132.098C263.561 132.098 263.471 131.995 263.297 131.781C258.832 128.46 254.023 127.127 248.805 127.048C247.694 127.031 246.59 126.572 245.482 126.316C245.482 126.316 245.475 126.359 245.433 126.183C245.23 125.852 245.069 125.697 244.908 125.542C244.908 125.542 244.948 125.283 244.963 124.938C244.739 124.226 244.5 123.859 244.261 123.491C243.244 121.439 242.227 119.387 240.816 116.539C244.044 113.497 247.476 110.264 251.314 106.825C251.295 106.254 250.875 105.576 250.445 105.569C242.716 105.446 234.986 105.404 227.256 105.345C227.257 102.444 227.115 99.5302 227.35 96.6489C227.416 95.8326 228.579 94.4472 229.247 94.4423C246.096 94.319 262.947 94.3453 280.747 94.3453C272.691 102.128 265.243 109.323 257.525 116.779C266.23 119.158 273.168 123.663 278.337 130.783C287.632 121.65 296.826 112.591 306.053 103.566C308.721 100.958 311.446 98.4075 314.224 95.9231C314.999 95.2292 316.044 94.4509 316.987 94.4205C321.721 94.268 326.462 94.3506 332.111 94.3506C324.389 101.827 317.333 108.658 309.871 115.882C321.147 117.086 330.166 121.66 336.98 130.905C345.439 120.82 355.812 115.041 368.98 116.054C382.052 117.059 391.747 123.713 398.35 135.636C398.499 136.205 398.628 136.386 398.756 136.568C398.756 136.568 398.8 136.622 398.832 136.908C403.24 148.889 401.695 159.778 394.459 170.069C388.955 176.733 382.266 181.004 374.123 182.743C362.851 185.15 352.662 182.474 343.404 175.649C343.404 175.649 343.254 175.419 343.099 175.303C342.871 175.08 342.772 175.037 342.646 175.057C342.646 175.057 342.575 174.884 342.458 174.713C342.222 174.363 342.061 174.306 341.858 174.369C341.858 174.369 341.807 174.333 341.763 174.15C341.599 173.749 341.419 173.662 341.178 173.706C341.178 173.706 341.137 173.703 341.094 173.496C340.756 173.09 340.461 172.893 340.167 172.695C340.167 172.695 340.198 172.632 340.142 172.446C339.702 171.914 339.318 171.566 338.934 171.219C338.334 170.474 337.734 169.729 337.004 168.821C330.576 177.259 322.416 182.283 312.189 183.468C300.591 184.812 290.524 181.396 282.103 173.039C281.57 172.51 280.916 172.108 280.273 171.254C280.037 170.705 279.846 170.55 279.655 170.395C279.655 170.395 279.544 170.483 279.541 170.197C277.907 168.241 277.314 170.031 276.562 170.916C271.312 177.098 264.775 181.015 256.974 182.757C248.35 184.683 240.135 183.216 232.175 179.629C232.175 179.629 232.079 179.547 231.89 179.366C230.845 178.752 229.989 178.32 229.133 177.889C229.133 177.889 229.122 177.927 229.083 177.721C228.69 177.363 228.336 177.211 227.982 177.06C227.982 177.06 227.81 177.209 227.824 176.938C227.599 176.653 227.36 176.638 227.122 176.623ZM323.676 133.28C323.676 133.28 323.371 133.162 323.321 132.974C323.235 132.852 323.121 132.811 322.916 132.721C322.916 132.721 322.788 132.659 322.698 132.356C322.546 132.167 322.358 132.115 322.03 132.3C322.03 132.3 322.108 132.179 322.054 131.844C321.765 131.703 321.476 131.562 321.065 131.261C321.065 131.261 320.873 131.218 320.619 130.869C314.115 126.792 307.205 126.018 299.991 128.386C287.049 132.633 280.452 147.301 286.338 158.76C286.338 158.76 286.374 158.825 286.326 159.182C286.524 159.465 286.721 159.748 286.963 160.123C286.963 160.123 287.028 160.2 287.04 160.569C287.267 160.83 287.493 161.091 287.817 161.298C287.817 161.298 287.748 161.386 287.773 161.793C288.039 162.066 288.305 162.338 288.76 163.011C294.924 170.553 302.725 173.76 312.226 171.995C320.966 170.371 327.301 165.473 330.104 156.659C332.67 148.59 330.892 141.315 325.257 134.681C324.976 134.49 324.694 134.298 324.28 133.894C324.28 133.894 324.039 133.842 324.001 133.721C324.001 133.721 323.795 133.59 323.676 133.28ZM362.174 127.658C351.207 129.795 343.374 138.343 342.968 148.618C342.347 164.31 357.431 175.731 372.697 171.712C386.935 167.963 394.256 150.621 386.48 138.565C382.221 131.961 371.296 125.727 362.174 127.658Z" fill="#0862B1"/>
<circle cx="392.91" cy="105.506" r="10.178" stroke="#0862B1" stroke-width="2"/>
<path d="M177.155 53.1478H60.5278L91.5299 0.00134277L177.155 53.1478Z" fill="#0862B1"/>
<path d="M88.5059 101.049H177.156V162.418L136.311 134.146L88.5059 101.049Z" fill="url(#paint0_linear_126_6550)"/>
<path d="M93.7202 212.396L136.311 134.145L177.155 162.417L93.7202 212.396Z" fill="url(#paint1_linear_126_6550)"/>
<path d="M110.83 159.56L84.9924 209.444L82.5384 205.289L57.338 159.083L57.2437 158.916L110.83 159.56Z" fill="#0862B1"/>
<path d="M84.9216 209.635L0 159.895L0.0471918 54.0878L57.2436 158.916L57.338 159.083L82.5384 205.289L84.9216 209.635Z" fill="url(#paint2_linear_126_6550)"/>
<path d="M91.4577 0L60.3583 53.7037L34.6388 98.1424L7.40918 49.8592L91.4577 0Z" fill="url(#paint3_linear_126_6550)"/>
<defs>
<linearGradient id="paint0_linear_126_6550" x1="154.871" y1="150.446" x2="157.802" y2="114.564" gradientUnits="userSpaceOnUse">
<stop stop-color="#26AAE8"/>
<stop offset="1" stop-color="#0D89DB"/>
</linearGradient>
<linearGradient id="paint1_linear_126_6550" x1="128.322" y1="181.421" x2="140.748" y2="149.392" gradientUnits="userSpaceOnUse">
<stop stop-color="#26AAE8"/>
<stop offset="1" stop-color="#0D89DB"/>
</linearGradient>
<linearGradient id="paint2_linear_126_6550" x1="30.9742" y1="150.446" x2="-6.31542" y2="134.601" gradientUnits="userSpaceOnUse">
<stop stop-color="#26AAE8"/>
<stop offset="1" stop-color="#0D89DB"/>
</linearGradient>
<linearGradient id="paint3_linear_126_6550" x1="70.7982" y1="22.1244" x2="57.4115" y2="75.2629" gradientUnits="userSpaceOnUse">
<stop offset="0.393884" stop-color="#26AAE8"/>
<stop offset="1" stop-color="#0D89DB"/>
</linearGradient>
</defs>
</svg>
