<svg width="24" height="28" viewBox="0 0 24 28" fill="none" xmlns="http://www.w3.org/2000/svg">
<path d="M23.3542 7.00638H7.97937L12.0664 0.00012207L23.3542 7.00638Z" fill="#0862B1"/>
<path d="M11.6676 13.3213H23.3542V21.4115L17.9697 17.6843L11.6676 13.3213Z" fill="#0862B1"/>
<path d="M12.3551 28L17.9698 17.6842L23.3543 21.4114L12.3551 28Z" fill="url(#paint0_linear_297_119)"/>
<path d="M14.6106 21.0347L11.2045 27.6107L10.881 27.063L7.55883 20.9717L7.54639 20.9497L14.6106 21.0347Z" fill="#0862B1"/>
<path d="M11.1951 27.6361L0 21.0789L0.00622125 7.13037L7.54638 20.9498L7.55882 20.9719L10.881 27.0631L11.1951 27.6361Z" fill="url(#paint1_linear_297_119)"/>
<path d="M12.0569 0L7.95705 7.07972L4.56647 12.938L0.976807 6.5729L12.0569 0Z" fill="url(#paint2_linear_297_119)"/>
<defs>
<linearGradient id="paint0_linear_297_119" x1="16.9166" y1="23.9165" x2="18.5547" y2="19.6942" gradientUnits="userSpaceOnUse">
<stop stop-color="#26AAE8"/>
<stop offset="1" stop-color="#0D89DB"/>
</linearGradient>
<linearGradient id="paint1_linear_297_119" x1="4.08331" y1="19.8332" x2="-0.832557" y2="17.7444" gradientUnits="userSpaceOnUse">
<stop stop-color="#26AAE8"/>
<stop offset="1" stop-color="#0D89DB"/>
</linearGradient>
<linearGradient id="paint2_linear_297_119" x1="9.33333" y1="2.91665" x2="7.56858" y2="9.92185" gradientUnits="userSpaceOnUse">
<stop offset="0.393884" stop-color="#26AAE8"/>
<stop offset="1" stop-color="#0D89DB"/>
</linearGradient>
</defs>
</svg>
