<svg width="137" height="28" viewBox="0 0 137 28" fill="none" xmlns="http://www.w3.org/2000/svg">
<path d="M106.414 20.8937C105.069 19.7255 104.238 18.2933 104.209 16.4027C104.865 16.4027 105.498 16.4027 106.174 16.4027C106.232 17.4958 106.635 18.4308 107.446 19.1615C108.118 19.7662 108.903 20.1055 109.79 20.1716C111.426 20.2934 113.012 19.5888 113.77 17.953C114.467 16.4502 114.097 14.8012 112.764 13.5134C112.672 13.4355 112.619 13.406 112.566 13.3766C112.566 13.3766 112.551 13.3592 112.521 13.3231C111.767 12.7624 110.956 12.5373 110.075 12.524C109.887 12.5212 109.701 12.4436 109.514 12.4005C109.514 12.4005 109.512 12.4077 109.505 12.3779C109.471 12.3221 109.444 12.2959 109.417 12.2698C109.417 12.2698 109.423 12.226 109.426 12.1679C109.388 12.0477 109.348 11.9856 109.307 11.9236C109.136 11.5771 108.964 11.2306 108.726 10.7498C109.271 10.2362 109.85 9.69034 110.498 9.10982C110.495 9.01342 110.424 8.89888 110.352 8.89773C109.047 8.87697 107.742 8.86994 106.437 8.85996C106.437 8.37013 106.413 7.87824 106.452 7.39179C106.464 7.25398 106.66 7.02008 106.773 7.01925C109.617 6.99844 112.462 7.00288 115.467 7.00288C114.107 8.31676 112.85 9.53155 111.547 10.7903C113.016 11.192 114.188 11.9525 115.061 13.1546C116.63 11.6127 118.182 10.0832 119.74 8.55965C120.19 8.11923 120.65 7.6887 121.119 7.26925C121.25 7.15211 121.427 7.02071 121.586 7.01558C122.385 6.98982 123.185 7.00377 124.139 7.00377C122.835 8.26598 121.644 9.4192 120.384 10.6389C122.288 10.8422 123.811 11.6145 124.961 13.1753C126.389 11.4727 128.141 10.497 130.364 10.6679C132.571 10.8376 134.208 11.9611 135.322 13.974C135.347 14.0699 135.369 14.1006 135.391 14.1313C135.391 14.1313 135.398 14.1405 135.404 14.1887C136.148 16.2114 135.887 18.0497 134.665 19.7873C133.736 20.9124 132.607 21.6334 131.232 21.927C129.329 22.3333 127.609 21.8816 126.046 20.7293C126.046 20.7293 126.02 20.6904 125.994 20.6708C125.956 20.6332 125.939 20.6259 125.918 20.6294C125.918 20.6294 125.906 20.6002 125.886 20.5714C125.846 20.5123 125.819 20.5025 125.785 20.5133C125.785 20.5133 125.776 20.507 125.769 20.4762C125.741 20.4085 125.711 20.3938 125.67 20.4013C125.67 20.4013 125.663 20.4008 125.656 20.3657C125.599 20.2973 125.549 20.264 125.499 20.2306C125.499 20.2306 125.504 20.2199 125.495 20.1886C125.421 20.0987 125.356 20.0401 125.291 19.9814C125.19 19.8556 125.089 19.7298 124.965 19.5765C123.88 21.001 122.502 21.8493 120.776 22.0494C118.818 22.2762 117.118 21.6995 115.696 20.2886C115.606 20.1993 115.496 20.1315 115.387 19.9872C115.348 19.8946 115.315 19.8684 115.283 19.8423C115.283 19.8423 115.264 19.8571 115.264 19.8088C114.988 19.4786 114.888 19.7808 114.761 19.9303C113.874 20.9739 112.771 21.6353 111.454 21.9294C109.998 22.2546 108.611 22.0068 107.267 21.4013C107.267 21.4013 107.251 21.3875 107.219 21.3568C107.042 21.2532 106.898 21.1803 106.754 21.1074C106.754 21.1074 106.752 21.1139 106.745 21.0791C106.679 21.0186 106.619 20.993 106.559 20.9674C106.559 20.9674 106.53 20.9927 106.532 20.947C106.495 20.8987 106.454 20.8962 106.414 20.8937ZM122.715 13.5761C122.715 13.5761 122.664 13.5563 122.655 13.5244C122.641 13.5039 122.621 13.4969 122.587 13.4818C122.587 13.4818 122.565 13.4713 122.55 13.4201C122.524 13.3882 122.493 13.3796 122.437 13.4107C122.437 13.4107 122.45 13.3903 122.441 13.3338C122.392 13.31 122.344 13.2862 122.274 13.2354C122.274 13.2354 122.242 13.228 122.199 13.1691C121.101 12.4809 119.934 12.3502 118.716 12.7499C116.531 13.467 115.418 15.9433 116.411 17.878C116.411 17.878 116.417 17.889 116.409 17.9492C116.443 17.997 116.476 18.0447 116.517 18.108C116.517 18.108 116.528 18.1211 116.53 18.1833C116.568 18.2274 116.606 18.2714 116.661 18.3064C116.661 18.3064 116.649 18.3214 116.654 18.3899C116.699 18.436 116.743 18.4821 116.82 18.5957C117.861 19.869 119.178 20.4104 120.782 20.1123C122.258 19.8382 123.327 19.0113 123.8 17.5232C124.234 16.161 123.933 14.9327 122.982 13.8127C122.935 13.7804 122.887 13.7481 122.817 13.6799C122.817 13.6799 122.776 13.6711 122.77 13.6507C122.77 13.6507 122.735 13.6286 122.715 13.5761ZM129.215 12.6271C127.363 12.9879 126.041 14.4309 125.972 16.1656C125.867 18.815 128.414 20.7432 130.991 20.0646C133.395 19.4317 134.631 16.5038 133.318 14.4684C132.599 13.3535 130.755 12.301 129.215 12.6271Z" fill="#0862B1"/>
<path d="M135.791 8.88716C135.791 9.65327 135.17 10.2743 134.404 10.2743C133.638 10.2743 133.017 9.65327 133.017 8.88716C133.017 8.12105 133.638 7.5 134.404 7.5C135.17 7.5 135.791 8.12105 135.791 8.88716Z" fill="#0862B1" stroke="#0862B1"/>
<path d="M31.3542 14.2902C31.3542 12.7427 31.6634 11.3955 32.2818 10.2487C32.9001 9.08808 33.7926 8.18998 34.959 7.5544C36.1255 6.90501 37.5379 6.58031 39.1962 6.58031C39.9551 6.58031 40.6297 6.64249 41.2199 6.76684C41.8102 6.87738 42.3161 7.03627 42.7377 7.24352V9.15026H42.5691C42.1896 8.95682 41.7118 8.78411 41.1356 8.63213C40.5594 8.48014 39.9129 8.40415 39.1962 8.40415C37.4254 8.40415 36.0271 8.88083 35.0012 9.8342C33.9753 10.7737 33.4623 12.2591 33.4623 14.2902C33.4623 15.6718 33.6872 16.8048 34.1369 17.6891C34.5866 18.5596 35.226 19.209 36.0552 19.6373C36.8844 20.0518 37.8751 20.2591 39.0275 20.2591C39.4491 20.2591 39.8567 20.2245 40.2502 20.1554C40.6437 20.0725 41.0091 19.9827 41.3464 19.886L40.8826 20.7979V14.2073H42.9063V21.171C42.4426 21.4197 41.8664 21.62 41.1777 21.772C40.5032 21.924 39.7864 22 39.0275 22C37.313 22 35.8865 21.6822 34.7482 21.0466C33.6099 20.3972 32.7596 19.4991 32.1975 18.3523C31.6353 17.1917 31.3542 15.8377 31.3542 14.2902Z" fill="#0D89DB"/>
<path d="M52.6773 21.9171C51.6092 21.9171 50.6747 21.7927 49.8736 21.544C49.0866 21.2815 48.4261 20.9016 47.892 20.4041C47.3721 19.9067 46.9856 19.2988 46.7326 18.5803C46.4796 17.848 46.3532 17.0121 46.3532 16.0725C46.3532 14.8981 46.571 13.8756 47.0067 13.0052C47.4564 12.1209 48.0747 11.437 48.8617 10.9534C49.6628 10.4698 50.5974 10.228 51.6654 10.228C52.9022 10.228 53.9 10.4767 54.6589 10.9741C55.4178 11.4715 55.9588 12.1693 56.2821 13.0674C56.6194 13.9655 56.7669 15.0086 56.7248 16.1969L56.7037 16.7772H47.7023V15.2021H54.701V15.0363C54.701 14 54.4481 13.2193 53.9421 12.6943C53.4362 12.1554 52.6773 11.886 51.6654 11.886C51.0752 11.886 50.5271 12.0104 50.0212 12.2591C49.5152 12.5078 49.1077 12.9292 48.7985 13.5233C48.4893 14.1174 48.3347 14.9257 48.3347 15.9482V16.0725C48.3347 17.1364 48.5245 17.9724 48.9039 18.5803C49.2834 19.1883 49.8033 19.6235 50.4639 19.886C51.1384 20.1347 51.9044 20.2591 52.7616 20.2591C53.4784 20.2591 54.0897 20.19 54.5956 20.0518C55.1016 19.9136 55.5021 19.7617 55.7972 19.5959H55.9659V21.2953C55.6286 21.4611 55.1859 21.6062 54.6378 21.7306C54.0897 21.8549 53.4362 21.9171 52.6773 21.9171Z" fill="#0D89DB"/>
<path d="M59.0896 19.513H59.2582C59.7641 19.734 60.3333 19.9136 60.9657 20.0518C61.6122 20.19 62.2516 20.2591 62.884 20.2591C63.0808 20.2591 63.3408 20.2522 63.664 20.2383C64.0013 20.2107 64.3386 20.1485 64.6759 20.0518C65.0272 19.9551 65.3223 19.7893 65.5613 19.5544C65.8002 19.3057 65.9196 18.9603 65.9196 18.5181C65.9196 18.0207 65.7158 17.6684 65.3083 17.4611C64.9007 17.2539 64.3386 17.095 63.6219 16.9845L62.61 16.8187C61.4154 16.6252 60.5301 16.2936 59.9539 15.8238C59.3777 15.3402 59.0896 14.6632 59.0896 13.7927C59.0896 13.1848 59.2512 12.6183 59.5744 12.0933C59.9117 11.5544 60.4457 11.1261 61.1765 10.8083C61.9214 10.4767 62.9121 10.3109 64.1489 10.3109C64.697 10.3109 65.224 10.3592 65.7299 10.456C66.2499 10.5389 66.6785 10.6425 67.0158 10.7668V12.4663H66.8472C66.3834 12.3005 65.9407 12.1762 65.5191 12.0933C65.0975 12.0104 64.6126 11.9689 64.0645 11.9689C63.0948 11.9689 62.3289 12.1071 61.7668 12.3834C61.2187 12.6459 60.9446 13.095 60.9446 13.7306C60.9446 14.2142 61.1414 14.5596 61.5349 14.7668C61.9424 14.9741 62.5046 15.133 63.2213 15.2435L64.2332 15.4093C64.8797 15.506 65.4699 15.6788 66.0039 15.9275C66.538 16.1762 66.9666 16.5147 67.2899 16.943C67.6131 17.3575 67.7747 17.8826 67.7747 18.5181C67.7747 19.6373 67.3672 20.487 66.552 21.0674C65.7369 21.6339 64.4862 21.9171 62.7997 21.9171C62.083 21.9171 61.4084 21.8618 60.776 21.7513C60.1576 21.6408 59.5955 21.5026 59.0896 21.3368V19.513Z" fill="#0D89DB"/>
<path d="M74.6021 21.9171C73.6184 21.9171 72.8314 21.7651 72.2411 21.4611C71.6509 21.1434 71.2222 20.7081 70.9552 20.1554C70.6882 19.5889 70.5547 18.9326 70.5547 18.1865V7.40933H72.4941V18.0207C72.4941 18.8083 72.6698 19.3817 73.0211 19.7409C73.3725 20.0864 73.9276 20.2591 74.6865 20.2591C74.9816 20.2591 75.2697 20.2314 75.5508 20.1762C75.8318 20.1071 76.0778 20.0242 76.2886 19.9275H76.4572V21.544C76.2464 21.6408 75.9794 21.7237 75.6562 21.7927C75.3329 21.8756 74.9816 21.9171 74.6021 21.9171ZM68.7839 12.1347V10.4767H75.7827V12.1347H68.7839Z" fill="#0D89DB"/>
<path d="M83.1546 22C81.5103 22 80.2736 21.7098 79.4444 21.1295C78.6293 20.5354 78.2217 19.6373 78.2217 18.4352C78.2217 17.6339 78.4185 16.9706 78.812 16.4456C79.2195 15.9206 79.7887 15.5268 80.5195 15.2642C81.2643 15.0017 82.1427 14.8705 83.1546 14.8705C83.9416 14.8705 84.5951 14.9396 85.115 15.0777C85.6491 15.2021 86.1058 15.3264 86.4853 15.4508V16.943C86.1058 16.8187 85.635 16.7081 85.0729 16.6114C84.5107 16.5009 83.9837 16.4456 83.4918 16.4456C82.3535 16.4456 81.5033 16.5907 80.9411 16.8808C80.393 17.171 80.119 17.6891 80.119 18.4352C80.119 19.1399 80.386 19.6511 80.92 19.9689C81.4541 20.2729 82.227 20.4249 83.2389 20.4249C83.801 20.4249 84.3421 20.3834 84.8621 20.3005C85.3821 20.2038 85.8669 20.0794 86.3166 19.9275L85.9372 20.487C85.9091 20.3765 85.881 20.2522 85.8529 20.114C85.8388 19.9758 85.8247 19.8307 85.8107 19.6788C85.7966 19.5268 85.7826 19.3679 85.7685 19.2021C85.7685 19.0363 85.7685 18.8636 85.7685 18.6839V14.9534C85.7685 14.0691 85.6421 13.4128 85.3891 12.9845C85.1502 12.5423 84.7848 12.2522 84.2929 12.114C83.8151 11.962 83.2108 11.886 82.48 11.886C81.9319 11.886 81.3697 11.9551 80.7935 12.0933C80.2314 12.2314 79.7817 12.3834 79.4444 12.5492H79.2757V10.8497C79.7817 10.6425 80.3438 10.4905 80.9622 10.3938C81.5946 10.2832 82.1849 10.228 82.7329 10.228C83.4356 10.228 84.0821 10.2902 84.6723 10.4145C85.2767 10.5389 85.8037 10.7668 86.2534 11.0984C86.7172 11.4162 87.0755 11.8791 87.3285 12.487C87.5815 13.095 87.7079 13.8895 87.7079 14.8705V17.6062C87.7079 17.8826 87.7079 18.2418 87.7079 18.6839C87.722 19.1261 87.736 19.5613 87.7501 19.9896C87.7782 20.418 87.8204 20.7565 87.8766 21.0052L87.8344 21.171C87.3706 21.3368 86.8577 21.4819 86.2955 21.6062C85.7334 21.7306 85.1713 21.8273 84.6091 21.8964C84.061 21.9655 83.5762 22 83.1546 22ZM79.7606 8.65285C79.7606 8.15544 79.8379 7.70639 79.9925 7.3057C80.1611 6.90501 80.4 6.58722 80.7092 6.35233C81.0325 6.11744 81.4189 6 81.8686 6C82.2903 6 82.6486 6.0829 82.9438 6.24871C83.2389 6.41451 83.4989 6.60794 83.7237 6.82902C83.8924 6.99482 84.061 7.13299 84.2297 7.24352C84.3983 7.35406 84.5951 7.40933 84.8199 7.40933C85.1572 7.40933 85.3821 7.27116 85.4945 6.99482C85.6069 6.70466 85.6631 6.37306 85.6631 6H86.928C86.928 6.49741 86.8436 6.94646 86.675 7.34715C86.5204 7.74784 86.2815 8.06563 85.9583 8.30052C85.6491 8.53541 85.2696 8.65285 84.8199 8.65285C84.3983 8.65285 84.0399 8.56995 83.7448 8.40415C83.4497 8.23834 83.1897 8.04491 82.9648 7.82383C82.7962 7.65803 82.6275 7.51986 82.4589 7.40933C82.3043 7.29879 82.1076 7.24352 81.8686 7.24352C81.5314 7.24352 81.3065 7.3886 81.1941 7.67876C81.0816 7.9551 81.0254 8.27979 81.0254 8.65285H79.7606Z" fill="#0D89DB"/>
<path d="M90.814 16.0725C90.814 14.8428 91.0318 13.7927 91.4675 12.9223C91.9172 12.0518 92.5356 11.3886 93.3226 10.9326C94.1236 10.4629 95.0442 10.228 96.0841 10.228C97.1241 10.228 98.0376 10.4629 98.8246 10.9326C99.6256 11.3886 100.244 12.0518 100.68 12.9223C101.129 13.7927 101.354 14.8428 101.354 16.0725C101.354 17.3022 101.129 18.3523 100.68 19.2228C100.244 20.0933 99.6256 20.7634 98.8246 21.2332C98.0376 21.6891 97.1241 21.9171 96.0841 21.9171C95.0161 21.9171 94.0885 21.6891 93.3015 21.2332C92.5145 20.7634 91.9032 20.0933 91.4675 19.2228C91.0318 18.3523 90.814 17.3022 90.814 16.0725ZM92.7956 16.0725C92.7956 17.4542 93.0766 18.4974 93.6388 19.2021C94.215 19.9067 95.0301 20.2591 96.0841 20.2591C97.1382 20.2591 97.9462 19.9067 98.5084 19.2021C99.0846 18.4974 99.3727 17.4542 99.3727 16.0725C99.3727 14.677 99.0846 13.6339 98.5084 12.943C97.9462 12.2383 97.1382 11.886 96.0841 11.886C95.0301 11.886 94.215 12.2383 93.6388 12.943C93.0766 13.6339 92.7956 14.677 92.7956 16.0725Z" fill="#0D89DB"/>
<path d="M23.3542 7.00638H7.97937L12.0664 0.00012207L23.3542 7.00638Z" fill="#0862B1"/>
<path d="M11.6676 13.3213H23.3542V21.4115L17.9697 17.6843L11.6676 13.3213Z" fill="#0862B1"/>
<path d="M12.3551 28L17.9698 17.6842L23.3543 21.4114L12.3551 28Z" fill="url(#paint0_linear_297_143)"/>
<path d="M14.6106 21.0347L11.2045 27.6107L10.881 27.063L7.55883 20.9717L7.54639 20.9497L14.6106 21.0347Z" fill="#0862B1"/>
<path d="M11.1951 27.6361L0 21.0789L0.00622125 7.13037L7.54638 20.9498L7.55882 20.9719L10.881 27.0631L11.1951 27.6361Z" fill="url(#paint1_linear_297_143)"/>
<path d="M12.0569 0L7.95705 7.07972L4.56647 12.938L0.976807 6.5729L12.0569 0Z" fill="url(#paint2_linear_297_143)"/>
<defs>
<linearGradient id="paint0_linear_297_143" x1="16.9166" y1="23.9165" x2="18.5547" y2="19.6942" gradientUnits="userSpaceOnUse">
<stop stop-color="#26AAE8"/>
<stop offset="1" stop-color="#0D89DB"/>
</linearGradient>
<linearGradient id="paint1_linear_297_143" x1="4.08331" y1="19.8332" x2="-0.832557" y2="17.7444" gradientUnits="userSpaceOnUse">
<stop stop-color="#26AAE8"/>
<stop offset="1" stop-color="#0D89DB"/>
</linearGradient>
<linearGradient id="paint2_linear_297_143" x1="9.33333" y1="2.91665" x2="7.56858" y2="9.92185" gradientUnits="userSpaceOnUse">
<stop offset="0.393884" stop-color="#26AAE8"/>
<stop offset="1" stop-color="#0D89DB"/>
</linearGradient>
</defs>
</svg>
