<svg width="1300" height="815" viewBox="0 0 1300 815" fill="none" xmlns="http://www.w3.org/2000/svg">
<path opacity="0.1" fill-rule="evenodd" clip-rule="evenodd" d="M1299.78 2.24164L1298.38 813.411L1297.98 813.41L1297.98 814.252L0.000976562 812.011L0.00338785 810.614L30.9886 810.668L31.0381 781.996L0.0525062 781.943L0.0549176 780.546L31.0405 780.599L31.09 751.928L0.105867 751.874L0.108278 750.477L31.0924 750.531L31.1418 721.86L0.157397 721.806L0.159808 720.409L31.1443 720.462L31.1937 691.791L0.208926 691.738L0.211338 690.341L31.1962 690.394L31.2456 661.723L0.260456 661.669L0.262868 660.272L31.2481 660.326L31.2975 631.655L0.311986 631.601L0.314397 630.204L31.2999 630.257L31.3494 601.586L0.365469 601.533L0.36788 600.136L31.3518 600.189L31.4013 571.518L0.416999 571.464L0.41941 570.067L31.4037 570.121L31.4532 541.45L0.468528 541.396L0.47094 539.999L31.4556 540.052L31.5051 511.381L0.520058 511.328L0.522469 509.931L31.5075 509.984L31.557 481.313L0.573419 481.259L0.57583 479.862L31.5594 479.916L31.6089 451.244L0.622995 451.191L0.625407 449.794L31.6113 449.847L31.6608 421.176L0.676234 421.123L0.678645 419.725L31.6632 419.779L31.7128 391.108L0.727764 391.054L0.730175 389.657L31.7152 389.711L31.7647 361.039L0.779293 360.986L0.781705 359.589L31.7671 359.642L31.8166 330.971L0.832776 330.918L0.835188 329.52L31.819 329.574L31.8685 300.903L0.882353 300.849L0.884764 299.452L31.8709 299.505L31.9204 270.834L0.935714 270.781L0.938125 269.384L31.9228 269.437L31.9723 240.766L0.987243 240.712L0.989655 239.315L31.9747 239.369L32.0242 210.698L1.04073 210.644L1.04314 209.247L32.0266 209.3L32.0761 180.629L1.0903 180.576L1.09271 179.179L32.0785 179.232L32.128 150.561L1.14379 150.507L1.1462 149.11L32.1304 149.164L32.1799 120.492L1.19532 120.439L1.19773 119.042L32.1823 119.095L32.2318 90.4241L1.24685 90.3706L1.24926 88.9735L32.2342 89.027L32.2837 60.3558L1.29837 60.3023L1.30079 58.9051L32.2861 58.9586L32.3356 30.2874L1.3499 30.2339L1.35232 28.8368L32.338 28.8902L32.3878 0.0546875L33.785 0.0570991L33.7352 28.8927L63.9864 28.9449L64.0361 0.109371L65.4334 0.111783L65.3836 28.9473L95.6348 28.9995L95.6845 0.164055L97.0817 0.166467L97.032 29.0019L127.287 29.0541L127.337 0.218685L128.734 0.221097L128.684 29.0565L158.936 29.1088L158.985 0.273369L160.383 0.275781L160.333 29.1112L190.588 29.1634L190.638 0.32806L192.035 0.330472L191.985 29.1658L222.236 29.218L222.286 0.381829L223.683 0.38424L223.634 29.2204L253.885 29.2726L253.935 0.436513L255.332 0.438924L255.282 29.275L285.537 29.3273L285.587 0.491203L286.984 0.493615L286.934 29.3297L317.185 29.3819L317.235 0.545888L318.632 0.548299L318.583 29.3843L348.836 29.4365L348.885 0.600575L350.283 0.602986L350.233 29.4389L380.486 29.4911L380.536 0.655262L381.933 0.657674L381.883 29.4936L412.137 29.5458L412.186 0.70995L413.584 0.712361L413.534 29.5482L443.787 29.6004L443.837 0.764637L445.234 0.767049L445.184 29.6028L475.435 29.655L475.485 0.819321L476.882 0.821733L476.832 29.6574L507.088 29.7097L507.137 0.874012L508.535 0.876423L508.485 29.7121L538.738 29.7643L538.788 0.928699L540.185 0.931111L540.135 29.7667L570.387 29.8189L570.436 0.983384L571.834 0.985795L571.784 29.8213L602.037 29.8735L602.087 1.03807L603.484 1.04048L603.434 29.8759L633.687 29.9282L633.737 1.09276L635.134 1.09517L635.084 29.9306L665.338 29.9828L665.387 1.14745L666.785 1.14986L666.735 29.9852L696.986 30.0374L697.036 1.20213L698.433 1.20454L698.383 30.0398L728.639 30.092L728.688 1.25584L730.086 1.25826L730.036 30.0945L760.287 30.1467L760.337 1.31053L761.734 1.31294L761.684 30.1491L791.937 30.2013L791.987 1.36522L793.384 1.36763L793.334 30.2037L823.588 30.2559L823.637 1.4199L825.035 1.42231L824.985 30.2583L855.238 30.3106L855.288 1.47459L856.685 1.477L856.635 30.313L886.886 30.3652L886.936 1.52927L888.333 1.53169L888.284 30.3676L918.537 30.4198L918.587 1.58396L919.984 1.58637L919.934 30.4222L950.187 30.4744L950.237 1.63865L951.634 1.64106L951.584 30.4768L981.838 30.5291L981.887 1.69334L983.285 1.69575L983.235 30.5315L1013.49 30.5837L1013.54 1.74802L1014.93 1.75043L1014.88 30.5861L1045.14 30.6383L1045.19 1.80271L1046.59 1.80512L1046.54 30.6407L1076.79 30.6929L1076.84 1.8574L1078.23 1.85981L1078.18 30.6954L1108.44 30.7476L1108.49 1.91208L1109.88 1.91449L1109.83 30.75L1140.09 30.8022L1140.14 1.96677L1141.53 1.96918L1141.48 30.8046L1171.74 30.8568L1171.79 2.02146L1173.18 2.02387L1173.14 30.8592L1203.39 30.9114L1203.44 2.07614L1204.83 2.07855L1204.78 30.9139L1235.04 30.9661L1235.09 2.13083L1236.48 2.13324L1236.43 30.9685L1266.69 31.0207L1266.74 2.18454L1268.13 2.18695L1268.08 31.0231L1298.34 31.0753L1298.39 2.23923L1299.78 2.24164ZM1298.34 32.4725L1268.08 32.4203L1268.03 61.0915L1298.29 61.1437L1298.34 32.4725ZM1298.28 62.5408L1268.03 62.4886L1267.98 91.1598L1298.23 91.2121L1298.28 62.5408ZM1298.23 92.6092L1267.98 92.557L1267.93 121.228L1298.18 121.28L1298.23 92.6092ZM1298.18 122.678L1267.93 122.625L1267.88 151.297L1298.13 151.349L1298.18 122.678ZM1298.13 152.746L1267.87 152.694L1267.82 181.365L1298.08 181.417L1298.13 152.746ZM1298.08 182.814L1267.82 182.762L1267.77 211.433L1298.03 211.485L1298.08 182.814ZM1298.02 212.883L1267.77 212.83L1267.72 241.502L1297.97 241.554L1298.02 212.883ZM1297.97 242.951L1267.72 242.899L1267.67 271.57L1297.92 271.622L1297.97 242.951ZM1297.92 273.019L1267.67 272.967L1267.62 301.638L1297.87 301.691L1297.92 273.019ZM1297.87 303.088L1267.61 303.035L1267.57 331.707L1297.82 331.759L1297.87 303.088ZM1297.82 333.156L1267.56 333.104L1267.51 361.775L1297.77 361.827L1297.82 333.156ZM1297.76 363.224L1267.51 363.172L1267.46 391.843L1297.72 391.896L1297.76 363.224ZM1297.71 393.293L1267.46 393.241L1267.41 421.912L1297.66 421.964L1297.71 393.293ZM1297.66 423.361L1267.41 423.309L1267.36 451.98L1297.61 452.032L1297.66 423.361ZM1297.61 453.43L1267.36 453.377L1267.31 482.049L1297.56 482.101L1297.61 453.43ZM1297.56 483.498L1267.3 483.446L1267.25 512.117L1297.51 512.169L1297.56 483.498ZM1297.51 513.566L1267.25 513.514L1267.2 542.185L1297.46 542.237L1297.51 513.566ZM1297.45 543.635L1267.2 543.582L1267.15 572.254L1297.4 572.306L1297.45 543.635ZM1297.4 573.703L1267.15 573.651L1267.1 602.322L1297.35 602.374L1297.4 573.703ZM1297.35 603.771L1267.1 603.719L1267.05 632.39L1297.3 632.443L1297.35 603.771ZM1297.3 633.84L1267.04 633.787L1266.99 662.459L1297.25 662.511L1297.3 633.84ZM1297.25 663.908L1266.99 663.856L1266.94 692.527L1297.2 692.579L1297.25 663.908ZM1297.19 693.976L1266.94 693.924L1266.89 722.595L1297.14 722.648L1297.19 693.976ZM1297.14 724.045L1266.89 723.992L1266.84 752.664L1297.09 752.716L1297.14 724.045ZM1297.09 754.113L1266.84 754.061L1266.79 782.732L1297.04 782.784L1297.09 754.113ZM1297.04 784.181L1266.78 784.129L1266.73 812.8L1296.99 812.853L1297.04 784.181ZM1265.34 812.798L1265.39 784.127L1235.13 784.075L1235.08 812.746L1265.34 812.798ZM1233.69 812.743L1233.74 784.072L1203.48 784.02L1203.43 812.691L1233.69 812.743ZM1202.04 812.689L1202.09 784.018L1171.84 783.965L1171.79 812.637L1202.04 812.689ZM1170.39 812.634L1170.44 783.963L1140.18 783.911L1140.14 812.582L1170.39 812.634ZM1138.74 812.58L1138.79 783.908L1108.53 783.856L1108.48 812.527L1138.74 812.58ZM1107.09 812.525L1107.14 783.854L1076.88 783.802L1076.83 812.473L1107.09 812.525ZM1075.44 812.47L1075.49 783.799L1045.24 783.747L1045.19 812.418L1075.44 812.47ZM1043.79 812.416L1043.84 783.745L1013.58 783.692L1013.53 812.363L1043.79 812.416ZM1012.14 812.361L1012.19 783.69L981.935 783.638L981.885 812.309L1012.14 812.361ZM980.488 812.306L980.538 783.635L950.284 783.583L950.235 812.254L980.488 812.306ZM948.838 812.252L948.887 783.581L918.634 783.528L918.585 812.2L948.838 812.252ZM917.187 812.197L917.237 783.526L886.984 783.474L886.934 812.145L917.187 812.197ZM885.537 812.143L885.587 783.471L855.335 783.419L855.286 812.09L885.537 812.143ZM853.889 812.088L853.938 783.417L823.685 783.365L823.635 812.036L853.889 812.088ZM822.238 812.033L822.288 783.362L792.034 783.31L791.985 811.981L822.238 812.033ZM790.588 811.979L790.637 783.307L760.384 783.255L760.335 811.926L790.588 811.979ZM758.937 811.924L758.987 783.253L728.736 783.201L728.686 811.872L758.937 811.924ZM727.289 811.869L727.339 783.198L697.083 783.146L697.034 811.817L727.289 811.869ZM695.637 811.815L695.686 783.144L665.435 783.091L665.385 811.763L695.637 811.815ZM663.988 811.76L664.038 783.089L633.784 783.037L633.735 811.708L663.988 811.76ZM632.338 811.706L632.387 783.034L602.134 782.982L602.085 811.653L632.338 811.706ZM600.688 811.651L600.737 782.98L570.484 782.927L570.434 811.599L600.688 811.651ZM569.037 811.596L569.087 782.925L538.835 782.873L538.786 811.544L569.037 811.596ZM537.389 811.542L537.438 782.87L507.185 782.818L507.135 811.489L537.389 811.542ZM505.738 811.487L505.788 782.816L475.533 782.764L475.483 811.435L505.738 811.487ZM474.086 811.432L474.135 782.761L443.884 782.709L443.835 811.38L474.086 811.432ZM442.438 811.378L442.487 782.707L412.234 782.654L412.184 811.326L442.438 811.378ZM410.787 811.323L410.837 782.652L380.583 782.6L380.534 811.271L410.787 811.323ZM379.137 811.268L379.186 782.597L348.933 782.545L348.883 811.216L379.137 811.268ZM347.486 811.214L347.536 782.543L317.283 782.49L317.233 811.162L347.486 811.214ZM315.836 811.159L315.886 782.488L285.634 782.436L285.585 811.107L315.836 811.159ZM284.188 811.105L284.237 782.433L253.982 782.381L253.933 811.052L284.188 811.105ZM252.535 811.05L252.585 782.379L222.334 782.327L222.284 810.998L252.535 811.05ZM220.887 810.995L220.936 782.324L190.685 782.272L190.636 810.943L220.887 810.995ZM189.238 810.941L189.288 782.27L159.033 782.217L158.983 810.889L189.238 810.941ZM157.586 810.886L157.636 782.215L127.384 782.163L127.335 810.834L157.586 810.886ZM125.938 810.831L125.987 782.16L95.732 782.108L95.6826 810.779L125.938 810.831ZM94.2854 810.777L94.3348 782.106L64.0837 782.053L64.0342 810.725L94.2854 810.777ZM62.637 810.722L62.6864 782.051L32.4353 781.999L32.3858 810.67L62.637 810.722ZM32.4377 780.602L62.6889 780.654L62.7383 751.983L32.4872 751.93L32.4377 780.602ZM32.4896 750.533L62.7408 750.586L62.7902 721.914L32.5391 721.862L32.4896 750.533ZM32.5415 720.465L62.7926 720.517L62.8421 691.846L32.591 691.794L32.5415 720.465ZM32.5934 690.397L62.8445 690.449L62.894 661.778L32.6429 661.725L32.5934 690.397ZM32.6453 660.328L62.8964 660.38L62.9459 631.709L32.6948 631.657L32.6453 660.328ZM32.6972 630.26L62.9483 630.312L62.9978 601.641L32.7466 601.589L32.6972 630.26ZM32.7491 600.191L63.0002 600.244L63.0497 571.572L32.7985 571.52L32.7491 600.191ZM32.801 570.123L63.0521 570.175L63.1016 541.504L32.8504 541.452L32.801 570.123ZM32.8528 540.055L63.104 540.107L63.1535 511.436L32.9023 511.384L32.8528 540.055ZM32.9047 509.986L63.1559 510.039L63.2054 481.367L32.9542 481.315L32.9047 509.986ZM32.9566 479.918L63.2078 479.97L63.2573 451.299L33.0061 451.247L32.9566 479.918ZM33.0085 449.85L63.2597 449.902L63.3092 421.231L33.058 421.178L33.0085 449.85ZM33.0604 419.781L63.3116 419.833L63.3612 391.162L33.11 391.11L33.0604 419.781ZM33.1124 389.713L63.3636 389.765L63.4131 361.094L33.1619 361.042L33.1124 389.713ZM33.1643 359.645L63.4155 359.697L63.465 331.026L33.2138 330.973L33.1643 359.645ZM33.2162 329.576L63.4674 329.628L63.5169 300.957L33.2657 300.905L33.2162 329.576ZM33.2681 299.508L63.5193 299.56L63.5688 270.889L33.3176 270.837L33.2681 299.508ZM33.32 269.44L63.5712 269.492L63.6207 240.821L33.3695 240.768L33.32 269.44ZM33.3719 239.371L63.6231 239.423L63.6726 210.752L33.4214 210.7L33.3719 239.371ZM33.4238 209.303L63.675 209.355L63.7245 180.684L33.4733 180.632L33.4238 209.303ZM33.4757 179.234L63.7269 179.287L63.7764 150.615L33.5252 150.563L33.4757 179.234ZM33.5276 149.166L63.7788 149.218L63.8283 120.547L33.5771 120.495L33.5276 149.166ZM33.5795 119.098L63.8307 119.15L63.8802 90.4787L33.629 90.4265L33.5795 119.098ZM33.6314 89.0294L63.8826 89.0816L63.9321 60.4104L33.6809 60.3582L33.6314 89.0294ZM33.6833 58.961L63.9345 59.0132L63.984 30.342L33.7328 30.2898L33.6833 58.961ZM65.3812 30.3444L65.3317 59.0156L95.5829 59.0679L95.6324 30.3967L65.3812 30.3444ZM97.0296 30.3991L96.9801 59.0703L127.235 59.1225L127.285 30.4513L97.0296 30.3991ZM128.682 30.4537L128.633 59.1249L158.884 59.1771L158.933 30.5059L128.682 30.4537ZM160.33 30.5083L160.281 59.1795L190.536 59.2317L190.585 30.5605L160.33 30.5083ZM191.983 30.563L191.933 59.2342L222.184 59.2864L222.234 30.6152L191.983 30.563ZM223.631 30.6176L223.582 59.2888L253.833 59.341L253.882 30.6698L223.631 30.6176ZM255.28 30.6722L255.23 59.3434L285.485 59.3956L285.535 30.7244L255.28 30.6722ZM286.932 30.7268L286.882 59.398L317.134 59.4502L317.183 30.779L286.932 30.7268ZM318.58 30.7815L318.531 59.4527L348.784 59.5049L348.833 30.8337L318.58 30.7815ZM350.23 30.8361L350.181 59.5073L380.434 59.5595L380.484 30.8883L350.23 30.8361ZM381.881 30.8907L381.831 59.5619L412.085 59.6141L412.134 30.9429L381.881 30.8907ZM413.531 30.9453L413.482 59.6165L443.735 59.6688L443.785 30.9976L413.531 30.9453ZM445.182 31L445.132 59.6712L475.383 59.7234L475.433 31.0522L445.182 31ZM476.83 31.0546L476.781 59.7258L507.036 59.778L507.085 31.1068L476.83 31.0546ZM508.482 31.1092L508.433 59.7804L538.686 59.8326L538.736 31.1614L508.482 31.1092ZM540.133 31.1639L540.083 59.8351L570.335 59.8873L570.384 31.2161L540.133 31.1639ZM571.781 31.2185L571.732 59.8897L601.985 59.9419L602.035 31.2707L571.781 31.2185ZM603.432 31.2731L603.382 59.9443L633.635 59.9965L633.685 31.3253L603.432 31.2731ZM635.082 31.3277L635.033 59.9989L665.286 60.0511L665.335 31.3799L635.082 31.3277ZM666.732 31.3824L666.683 60.0536L696.934 60.1058L696.984 31.4346L666.732 31.3824ZM698.381 31.437L698.331 60.1082L728.587 60.1604L728.636 31.4892L698.381 31.437ZM730.033 31.4916L729.984 60.1628L760.235 60.215L760.284 31.5438L730.033 31.4916ZM761.682 31.5462L761.632 60.2174L791.885 60.2697L791.935 31.5985L761.682 31.5462ZM793.332 31.6009L793.282 60.2721L823.536 60.3243L823.585 31.6531L793.332 31.6009ZM824.982 31.6555L824.933 60.3267L855.186 60.3789L855.236 31.7077L824.982 31.6555ZM856.633 31.7101L856.583 60.3813L886.835 60.4335L886.884 31.7623L856.633 31.7101ZM888.281 31.7647L888.232 60.4359L918.485 60.4882L918.534 31.817L888.281 31.7647ZM919.932 31.8194L919.882 60.4906L950.135 60.5428L950.185 31.8716L919.932 31.8194ZM951.582 31.874L951.532 60.5452L981.786 60.5974L981.835 31.9262L951.582 31.874ZM983.232 31.9286L983.183 60.5998L1013.43 60.652L1013.48 31.9808L983.232 31.9286ZM1014.88 31.9833L1014.83 60.6545L1045.09 60.7067L1045.14 32.0355L1014.88 31.9833ZM1046.53 32.0379L1046.48 60.7091L1076.73 60.7613L1076.78 32.0901L1046.53 32.0379ZM1078.18 32.0925L1078.13 60.7637L1108.39 60.8159L1108.43 32.1447L1078.18 32.0925ZM1109.83 32.1471L1109.78 60.8183L1140.04 60.8706L1140.09 32.1994L1109.83 32.1471ZM1141.48 32.2018L1141.43 60.873L1171.69 60.9252L1171.74 32.254L1141.48 32.2018ZM1173.13 32.2564L1173.08 60.9276L1203.33 60.9798L1203.38 32.3086L1173.13 32.2564ZM1204.78 32.311L1204.73 60.9822L1234.98 61.0344L1235.03 32.3632L1204.78 32.311ZM1236.43 32.3656L1236.38 61.0368L1266.64 61.0891L1266.68 32.4179L1236.43 32.3656ZM1266.63 62.4862L1236.38 62.434L1236.33 91.1052L1266.58 91.1574L1266.63 62.4862ZM1266.58 92.5546L1236.33 92.5024L1236.28 121.174L1266.53 121.226L1266.58 92.5546ZM1266.53 122.623L1236.28 122.571L1236.23 151.242L1266.48 151.294L1266.53 122.623ZM1266.48 152.691L1236.22 152.639L1236.17 181.31L1266.43 181.363L1266.48 152.691ZM1266.43 182.76L1236.17 182.707L1236.12 211.379L1266.38 211.431L1266.43 182.76ZM1266.37 212.828L1236.12 212.776L1236.07 241.447L1266.32 241.499L1266.37 212.828ZM1266.32 242.896L1236.07 242.844L1236.02 271.515L1266.27 271.568L1266.32 242.896ZM1266.27 272.965L1236.02 272.913L1235.97 301.584L1266.22 301.636L1266.27 272.965ZM1266.22 303.033L1235.96 302.981L1235.92 331.652L1266.17 331.704L1266.22 303.033ZM1266.17 333.101L1235.91 333.049L1235.86 361.72L1266.12 361.773L1266.17 333.101ZM1266.11 363.17L1235.86 363.118L1235.81 391.789L1266.06 391.841L1266.11 363.17ZM1266.06 393.238L1235.81 393.186L1235.76 421.857L1266.01 421.909L1266.06 393.238ZM1266.01 423.306L1235.76 423.254L1235.71 451.926L1265.96 451.978L1266.01 423.306ZM1265.96 453.375L1235.7 453.323L1235.66 481.994L1265.91 482.046L1265.96 453.375ZM1265.91 483.443L1235.65 483.391L1235.6 512.062L1265.86 512.115L1265.91 483.443ZM1265.85 513.512L1235.6 513.459L1235.55 542.131L1265.8 542.183L1265.85 513.512ZM1265.8 543.58L1235.55 543.528L1235.5 572.199L1265.75 572.251L1265.8 543.58ZM1265.75 573.648L1235.5 573.596L1235.45 602.267L1265.7 602.32L1265.75 573.648ZM1265.7 603.717L1235.45 603.664L1235.4 632.336L1265.65 632.388L1265.7 603.717ZM1265.65 633.785L1235.39 633.733L1235.34 662.404L1265.6 662.456L1265.65 633.785ZM1265.59 663.853L1235.34 663.801L1235.29 692.472L1265.55 692.525L1265.59 663.853ZM1265.54 693.922L1235.29 693.87L1235.24 722.541L1265.49 722.593L1265.54 693.922ZM1265.49 723.99L1235.24 723.938L1235.19 752.609L1265.44 752.661L1265.49 723.99ZM1265.44 754.058L1235.19 754.006L1235.14 782.677L1265.39 782.73L1265.44 754.058ZM1233.74 782.675L1233.79 754.004L1203.54 753.952L1203.49 782.623L1233.74 782.675ZM1202.09 782.62L1202.14 753.949L1171.89 753.897L1171.84 782.568L1202.09 782.62ZM1170.44 782.566L1170.49 753.895L1140.24 753.842L1140.19 782.514L1170.44 782.566ZM1138.79 782.511L1138.84 753.84L1108.59 753.788L1108.54 782.459L1138.79 782.511ZM1107.14 782.457L1107.19 753.785L1076.94 753.733L1076.89 782.404L1107.14 782.457ZM1075.49 782.402L1075.54 753.731L1045.29 753.679L1045.24 782.35L1075.49 782.402ZM1043.84 782.347L1043.89 753.676L1013.64 753.624L1013.59 782.295L1043.84 782.347ZM1012.19 782.293L1012.24 753.621L981.987 753.569L981.937 782.24L1012.19 782.293ZM980.54 782.238L980.59 753.567L950.336 753.515L950.287 782.186L980.54 782.238ZM948.89 782.183L948.939 753.512L918.686 753.46L918.636 782.131L948.89 782.183ZM917.239 782.129L917.289 753.458L887.036 753.405L886.986 782.077L917.239 782.129ZM885.589 782.074L885.638 753.403L855.387 753.351L855.338 782.022L885.589 782.074ZM853.94 782.02L853.99 753.348L823.737 753.296L823.687 781.967L853.94 782.02ZM822.29 781.965L822.34 753.294L792.086 753.241L792.037 781.913L822.29 781.965ZM790.64 781.91L790.689 753.239L760.436 753.187L760.386 781.858L790.64 781.91ZM758.989 781.856L759.039 753.184L728.788 753.132L728.738 781.803L758.989 781.856ZM727.341 781.801L727.391 753.13L697.135 753.078L697.086 781.749L727.341 781.801ZM695.689 781.746L695.738 753.075L665.487 753.023L665.437 781.694L695.689 781.746ZM664.04 781.692L664.09 753.021L633.836 752.968L633.787 781.64L664.04 781.692ZM632.39 781.637L632.439 752.966L602.186 752.914L602.137 781.585L632.39 781.637ZM600.74 781.583L600.789 752.911L570.536 752.859L570.486 781.53L600.74 781.583ZM569.089 781.528L569.139 752.857L538.887 752.804L538.838 781.476L569.089 781.528ZM537.441 781.473L537.49 752.802L507.237 752.75L507.187 781.421L537.441 781.473ZM505.79 781.419L505.84 752.747L475.584 752.695L475.535 781.366L505.79 781.419ZM474.138 781.364L474.187 752.693L443.936 752.641L443.887 781.312L474.138 781.364ZM442.49 781.309L442.539 752.638L412.286 752.586L412.236 781.257L442.49 781.309ZM410.839 781.255L410.889 752.583L380.635 752.531L380.586 781.203L410.839 781.255ZM379.189 781.2L379.238 752.529L348.985 752.477L348.935 781.148L379.189 781.2ZM347.538 781.146L347.588 752.474L317.335 752.422L317.285 781.093L347.538 781.146ZM315.888 781.091L315.937 752.42L285.686 752.367L285.637 781.039L315.888 781.091ZM284.24 781.036L284.289 752.365L254.034 752.313L253.984 780.984L284.24 781.036ZM252.587 780.982L252.637 752.31L222.386 752.258L222.336 780.929L252.587 780.982ZM220.939 780.927L220.988 752.256L190.737 752.203L190.688 780.875L220.939 780.927ZM189.29 780.872L189.34 752.201L159.085 752.149L159.035 780.82L189.29 780.872ZM157.638 780.818L157.688 752.146L127.436 752.094L127.387 780.766L157.638 780.818ZM125.99 780.763L126.039 752.092L95.784 752.04L95.7345 780.711L125.99 780.763ZM94.3372 780.708L94.3867 752.037L64.1356 751.985L64.0861 780.656L94.3372 780.708ZM64.138 750.588L94.3891 750.64L94.4386 721.969L64.1875 721.917L64.138 750.588ZM64.1899 720.519L94.441 720.572L94.4905 691.901L64.2393 691.848L64.1899 720.519ZM64.2418 690.451L94.4929 690.503L94.5424 661.832L64.2912 661.78L64.2418 690.451ZM64.2937 660.383L94.5448 660.435L94.5943 631.764L64.3431 631.712L64.2937 660.383ZM64.3456 630.314L94.5967 630.367L94.6462 601.695L64.395 601.643L64.3456 630.314ZM64.3974 600.246L94.6486 600.298L94.6981 571.627L64.4469 571.575L64.3974 600.246ZM64.4493 570.178L94.7005 570.23L94.75 541.559L64.4988 541.507L64.4493 570.178ZM64.5012 540.109L94.7524 540.162L94.8019 511.49L64.5507 511.438L64.5012 540.109ZM64.5531 510.041L94.8043 510.093L94.8538 481.422L64.6026 481.37L64.5531 510.041ZM64.605 479.973L94.8562 480.025L94.9057 451.354L64.6545 451.301L64.605 479.973ZM64.6569 449.904L94.9081 449.957L94.9576 421.285L64.7064 421.233L64.6569 449.904ZM64.7088 419.836L94.96 419.888L95.0096 391.217L64.7584 391.165L64.7088 419.836ZM64.7608 389.768L95.012 389.82L95.0615 361.149L64.8103 361.096L64.7608 389.768ZM64.8127 359.699L95.0639 359.751L95.1134 331.08L64.8622 331.028L64.8127 359.699ZM64.8646 329.631L95.1158 329.683L95.1653 301.012L64.9141 300.96L64.8646 329.631ZM64.9165 299.562L95.1677 299.615L95.2172 270.944L64.966 270.891L64.9165 299.562ZM64.9684 269.494L95.2196 269.546L95.2691 240.875L65.0179 240.823L64.9684 269.494ZM65.0203 239.426L95.2715 239.478L95.321 210.807L65.0698 210.755L65.0203 239.426ZM65.0722 209.357L95.3234 209.41L95.3729 180.738L65.1217 180.686L65.0722 209.357ZM65.1241 179.289L95.3753 179.341L95.4248 150.67L65.1736 150.618L65.1241 179.289ZM65.176 149.221L95.4272 149.273L95.4767 120.602L65.2255 120.55L65.176 149.221ZM65.2279 119.152L95.4791 119.205L95.5286 90.5334L65.2774 90.4812L65.2279 119.152ZM65.2798 89.084L95.531 89.1362L95.5805 60.465L65.3293 60.4128L65.2798 89.084ZM96.9777 60.4674L96.9282 89.1386L127.183 89.1908L127.233 60.5196L96.9777 60.4674ZM128.63 60.5221L128.581 89.1933L158.832 89.2455L158.881 60.5743L128.63 60.5221ZM160.278 60.5767L160.229 89.2479L190.484 89.3001L190.534 60.6289L160.278 60.5767ZM191.931 60.6313L191.881 89.3025L222.133 89.3547L222.182 60.6835L191.931 60.6313ZM223.579 60.6859L223.53 89.3571L253.781 89.4093L253.83 60.7381L223.579 60.6859ZM255.228 60.7406L255.178 89.4118L285.433 89.464L285.483 60.7928L255.228 60.7406ZM286.88 60.7952L286.83 89.4664L317.082 89.5186L317.131 60.8474L286.88 60.7952ZM318.528 60.8498L318.479 89.521L348.732 89.5732L348.781 60.902L318.528 60.8498ZM350.179 60.9044L350.129 89.5756L380.382 89.6279L380.432 60.9567L350.179 60.9044ZM381.829 60.9591L381.779 89.6303L412.033 89.6825L412.082 61.0113L381.829 60.9591ZM413.479 61.0137L413.43 89.6849L443.683 89.7371L443.733 61.0659L413.479 61.0137ZM445.13 61.0683L445.08 89.7395L475.331 89.7917L475.381 61.1205L445.13 61.0683ZM476.778 61.1229L476.729 89.7942L506.984 89.8464L507.033 61.1752L476.778 61.1229ZM508.43 61.1776L508.381 89.8488L538.634 89.901L538.684 61.2298L508.43 61.1776ZM540.081 61.2322L540.031 89.9034L570.283 89.9556L570.332 61.2844L540.081 61.2322ZM571.729 61.2868L571.68 89.958L601.933 90.0103L601.983 61.3391L571.729 61.2868ZM603.38 61.3415L603.33 90.0127L633.583 90.0649L633.633 61.3937L603.38 61.3415ZM635.03 61.3961L634.981 90.0673L665.234 90.1195L665.283 61.4483L635.03 61.3961ZM666.68 61.4507L666.631 90.1219L696.882 90.1741L696.932 61.5029L666.68 61.4507ZM698.329 61.5053L698.28 90.1765L728.535 90.2288L728.584 61.5576L698.329 61.5053ZM729.981 61.56L729.932 90.2312L760.183 90.2834L760.233 61.6122L729.981 61.56ZM761.63 61.6146L761.58 90.2858L791.833 90.338L791.883 61.6668L761.63 61.6146ZM793.28 61.6692L793.231 90.3404L823.484 90.3926L823.533 61.7214L793.28 61.6692ZM824.93 61.7239L824.881 90.3951L855.134 90.4473L855.184 61.7761L824.93 61.7239ZM856.581 61.7785L856.531 90.4497L886.783 90.5019L886.832 61.8307L856.581 61.7785ZM888.229 61.8331L888.18 90.5043L918.433 90.5565L918.483 61.8853L888.229 61.8331ZM919.88 61.8877L919.83 90.5589L950.083 90.6112L950.133 61.9399L919.88 61.8877ZM951.53 61.9424L951.481 90.6136L981.734 90.6658L981.783 61.9946L951.53 61.9424ZM983.18 61.997L983.131 90.6682L1013.38 90.7204L1013.43 62.0492L983.18 61.997ZM1014.83 62.0516L1014.78 90.7228L1045.03 90.775L1045.08 62.1038L1014.83 62.0516ZM1046.48 62.1062L1046.43 90.7775L1076.68 90.8297L1076.73 62.1585L1046.48 62.1062ZM1078.13 62.1609L1078.08 90.8321L1108.33 90.8843L1108.38 62.2131L1078.13 62.1609ZM1109.78 62.2155L1109.73 90.8867L1139.98 90.9389L1140.03 62.2677L1109.78 62.2155ZM1141.43 62.2701L1141.38 90.9413L1171.63 90.9935L1171.68 62.3223L1141.43 62.2701ZM1173.08 62.3248L1173.03 90.9959L1203.28 91.0482L1203.33 62.377L1173.08 62.3248ZM1204.73 62.3794L1204.68 91.0506L1234.93 91.1028L1234.98 62.4316L1204.73 62.3794ZM1234.93 92.4999L1204.68 92.4477L1204.63 121.119L1234.88 121.171L1234.93 92.4999ZM1234.88 122.568L1204.63 122.516L1204.58 151.187L1234.83 151.24L1234.88 122.568ZM1234.83 152.637L1204.57 152.584L1204.52 181.256L1234.78 181.308L1234.83 152.637ZM1234.77 182.705L1204.52 182.653L1204.47 211.324L1234.73 211.376L1234.77 182.705ZM1234.72 212.773L1204.47 212.721L1204.42 241.392L1234.67 241.445L1234.72 212.773ZM1234.67 242.842L1204.42 242.79L1204.37 271.461L1234.62 271.513L1234.67 242.842ZM1234.62 272.91L1204.37 272.858L1204.32 301.529L1234.57 301.581L1234.62 272.91ZM1234.57 302.978L1204.31 302.926L1204.26 331.597L1234.52 331.65L1234.57 302.978ZM1234.52 333.047L1204.26 332.995L1204.21 361.666L1234.47 361.718L1234.52 333.047ZM1234.46 363.115L1204.21 363.063L1204.16 391.734L1234.41 391.786L1234.46 363.115ZM1234.41 393.184L1204.16 393.131L1204.11 421.803L1234.36 421.855L1234.41 393.184ZM1234.36 423.252L1204.11 423.2L1204.06 451.871L1234.31 451.923L1234.36 423.252ZM1234.31 453.32L1204.05 453.268L1204.01 481.939L1234.26 481.991L1234.31 453.32ZM1234.26 483.389L1204 483.336L1203.95 512.008L1234.21 512.06L1234.26 483.389ZM1234.2 513.457L1203.95 513.405L1203.9 542.076L1234.15 542.128L1234.2 513.457ZM1234.15 543.525L1203.9 543.473L1203.85 572.144L1234.1 572.197L1234.15 543.525ZM1234.1 573.594L1203.85 573.541L1203.8 602.213L1234.05 602.265L1234.1 573.594ZM1234.05 603.662L1203.8 603.61L1203.75 632.281L1234 632.333L1234.05 603.662ZM1234 633.73L1203.74 633.678L1203.69 662.349L1233.95 662.402L1234 633.73ZM1233.94 663.799L1203.69 663.747L1203.64 692.418L1233.9 692.47L1233.94 663.799ZM1233.89 693.867L1203.64 693.815L1203.59 722.486L1233.84 722.538L1233.89 693.867ZM1233.84 723.935L1203.59 723.883L1203.54 752.554L1233.79 752.607L1233.84 723.935ZM1202.14 752.552L1202.19 723.881L1171.94 723.829L1171.89 752.5L1202.14 752.552ZM1170.49 752.497L1170.54 723.826L1140.29 723.774L1140.24 752.445L1170.49 752.497ZM1138.84 752.443L1138.89 723.772L1108.64 723.719L1108.59 752.391L1138.84 752.443ZM1107.19 752.388L1107.24 723.717L1076.99 723.665L1076.94 752.336L1107.19 752.388ZM1075.54 752.333L1075.59 723.662L1045.34 723.61L1045.29 752.281L1075.54 752.333ZM1043.89 752.279L1043.94 723.608L1013.69 723.555L1013.64 752.227L1043.89 752.279ZM1012.24 752.224L1012.29 723.553L982.039 723.501L981.989 752.172L1012.24 752.224ZM980.592 752.17L980.641 723.498L950.388 723.446L950.339 752.117L980.592 752.17ZM948.942 752.115L948.991 723.444L918.738 723.392L918.688 752.063L948.942 752.115ZM917.291 752.06L917.341 723.389L887.087 723.337L887.038 752.008L917.291 752.06ZM885.641 752.006L885.69 723.335L855.439 723.282L855.39 751.954L885.641 752.006ZM853.992 751.951L854.042 723.28L823.789 723.228L823.739 751.899L853.992 751.951ZM822.342 751.896L822.391 723.225L792.138 723.173L792.089 751.844L822.342 751.896ZM790.692 751.842L790.741 723.171L760.488 723.119L760.438 751.79L790.692 751.842ZM759.041 751.787L759.091 723.116L728.84 723.064L728.79 751.735L759.041 751.787ZM727.393 751.733L727.442 723.061L697.187 723.009L697.138 751.68L727.393 751.733ZM695.741 751.678L695.79 723.007L665.539 722.955L665.489 751.626L695.741 751.678ZM664.092 751.623L664.142 722.952L633.888 722.9L633.839 751.571L664.092 751.623ZM632.442 751.569L632.491 722.898L602.238 722.845L602.189 751.517L632.442 751.569ZM600.791 751.514L600.841 722.843L570.588 722.791L570.538 751.462L600.791 751.514ZM569.141 751.459L569.19 722.788L538.939 722.736L538.89 751.407L569.141 751.459ZM537.492 751.405L537.542 722.734L507.289 722.681L507.239 751.353L537.492 751.405ZM505.842 751.35L505.892 722.679L475.636 722.627L475.587 751.298L505.842 751.35ZM474.19 751.296L474.239 722.624L443.988 722.572L443.939 751.243L474.19 751.296ZM442.541 751.241L442.591 722.57L412.338 722.518L412.288 751.189L442.541 751.241ZM410.891 751.186L410.94 722.515L380.687 722.463L380.638 751.134L410.891 751.186ZM379.24 751.132L379.29 722.461L349.037 722.408L348.987 751.08L379.24 751.132ZM347.59 751.077L347.64 722.406L317.386 722.354L317.337 751.025L347.59 751.077ZM315.94 751.022L315.989 722.351L285.738 722.299L285.689 750.97L315.94 751.022ZM284.291 750.968L284.341 722.297L254.086 722.244L254.036 750.916L284.291 750.968ZM252.639 750.913L252.689 722.242L222.437 722.19L222.388 750.861L252.639 750.913ZM220.991 750.859L221.04 722.187L190.789 722.135L190.739 750.806L220.991 750.859ZM189.342 750.804L189.392 722.133L159.137 722.081L159.087 750.752L189.342 750.804ZM157.69 750.749L157.739 722.078L127.488 722.026L127.439 750.697L157.69 750.749ZM126.042 750.695L126.091 722.023L95.8358 721.971L95.7864 750.643L126.042 750.695ZM95.8383 720.574L126.093 720.626L126.143 691.955L95.8877 691.903L95.8383 720.574ZM95.8902 690.506L126.145 690.558L126.195 661.887L95.9396 661.835L95.8902 690.506ZM95.942 660.437L126.197 660.49L126.247 631.818L95.9915 631.766L95.942 660.437ZM95.9939 630.369L126.249 630.421L126.299 601.75L96.0434 601.698L95.9939 630.369ZM96.0458 600.301L126.301 600.353L126.351 571.682L96.0953 571.629L96.0458 600.301ZM96.0977 570.232L126.353 570.285L126.402 541.613L96.1472 541.561L96.0977 570.232ZM96.1496 540.164L126.405 540.216L126.454 511.545L96.1991 511.493L96.1496 540.164ZM96.2015 510.096L126.457 510.148L126.506 481.477L96.251 481.424L96.2015 510.096ZM96.2534 480.027L126.509 480.079L126.558 451.408L96.3029 451.356L96.2534 480.027ZM96.3053 449.959L126.561 450.011L126.61 421.34L96.3548 421.288L96.3053 449.959ZM96.3572 419.891L126.612 419.943L126.662 391.272L96.4068 391.219L96.3572 419.891ZM96.4092 389.822L126.664 389.874L126.714 361.203L96.4587 361.151L96.4092 389.822ZM96.4611 359.754L126.716 359.806L126.766 331.135L96.5106 331.083L96.4611 359.754ZM96.513 329.685L126.768 329.738L126.818 301.066L96.5625 301.014L96.513 329.685ZM96.5649 299.617L126.82 299.669L126.87 270.998L96.6144 270.946L96.5649 299.617ZM96.6168 269.549L126.872 269.601L126.922 240.93L96.6663 240.878L96.6168 269.549ZM96.6687 239.48L126.924 239.533L126.973 210.861L96.7182 210.809L96.6687 239.48ZM96.7206 209.412L126.976 209.464L127.025 180.793L96.7701 180.741L96.7206 209.412ZM96.7725 179.344L127.028 179.396L127.077 150.725L96.822 150.673L96.7725 179.344ZM96.8244 149.275L127.08 149.328L127.129 120.656L96.8739 120.604L96.8244 149.275ZM96.8763 119.207L127.132 119.259L127.181 90.588L96.9258 90.5358L96.8763 119.207ZM128.578 90.5904L128.529 119.262L158.78 119.314L158.829 90.6426L128.578 90.5904ZM160.227 90.645L160.177 119.316L190.432 119.368L190.482 90.6973L160.227 90.645ZM191.879 90.6997L191.829 119.371L222.081 119.423L222.13 90.7519L191.879 90.6997ZM223.527 90.7543L223.478 119.425L253.729 119.478L253.779 90.8065L223.527 90.7543ZM255.176 90.8089L255.126 119.48L285.381 119.532L285.431 90.8611L255.176 90.8089ZM286.828 90.8635L286.778 119.535L317.03 119.587L317.079 90.9158L286.828 90.8635ZM318.476 90.9182L318.427 119.589L348.68 119.642L348.729 90.9704L318.476 90.9182ZM350.127 90.9728L350.077 119.644L380.33 119.696L380.38 91.025L350.127 90.9728ZM381.777 91.0274L381.728 119.699L411.981 119.751L412.03 91.0796L381.777 91.0274ZM413.428 91.0821L413.378 119.753L443.631 119.805L443.681 91.1343L413.428 91.0821ZM445.078 91.1367L445.028 119.808L475.28 119.86L475.329 91.1889L445.078 91.1367ZM476.726 91.1913L476.677 119.863L506.932 119.915L506.981 91.2435L476.726 91.1913ZM508.379 91.2459L508.329 119.917L538.582 119.969L538.632 91.2982L508.379 91.2459ZM540.029 91.3006L539.979 119.972L570.231 120.024L570.28 91.3528L540.029 91.3006ZM571.678 91.3552L571.628 120.026L601.881 120.079L601.931 91.4074L571.678 91.3552ZM603.328 91.4098L603.279 120.081L633.532 120.133L633.581 91.462L603.328 91.4098ZM634.978 91.4644L634.929 120.136L665.182 120.188L665.231 91.5167L634.978 91.4644ZM666.629 91.5191L666.579 120.19L696.831 120.242L696.88 91.5713L666.629 91.5191ZM698.277 91.5737L698.228 120.245L728.483 120.297L728.532 91.6259L698.277 91.5737ZM729.93 91.6283L729.88 120.3L760.131 120.352L760.181 91.6805L729.93 91.6283ZM761.578 91.683L761.528 120.354L791.781 120.406L791.831 91.7352L761.578 91.683ZM793.228 91.7376L793.179 120.409L823.432 120.461L823.481 91.7898L793.228 91.7376ZM824.879 91.7922L824.829 120.463L855.082 120.516L855.132 91.8444L824.879 91.7922ZM856.529 91.8468L856.479 120.518L886.731 120.57L886.78 91.899L856.529 91.8468ZM888.177 91.9015L888.128 120.573L918.381 120.625L918.431 91.9537L888.177 91.9015ZM919.828 91.9561L919.778 120.627L950.031 120.68L950.081 92.0083L919.828 91.9561ZM951.478 92.0107L951.429 120.682L981.682 120.734L981.731 92.0629L951.478 92.0107ZM983.129 92.0653L983.079 120.737L1013.33 120.789L1013.38 92.1176L983.129 92.0653ZM1014.78 92.12L1014.73 120.791L1044.98 120.843L1045.03 92.1722L1014.78 92.12ZM1046.43 92.1746L1046.38 120.846L1076.63 120.898L1076.68 92.2268L1046.43 92.1746ZM1078.08 92.2292L1078.03 120.9L1108.28 120.953L1108.33 92.2814L1078.08 92.2292ZM1109.73 92.2839L1109.68 120.955L1139.93 121.007L1139.98 92.3361L1109.73 92.2839ZM1141.38 92.3385L1141.33 121.01L1171.58 121.062L1171.63 92.3907L1141.38 92.3385ZM1173.03 92.3931L1172.98 121.064L1203.23 121.117L1203.28 92.4453L1173.03 92.3931ZM1203.23 122.514L1172.98 122.461L1172.93 151.133L1203.18 151.185L1203.23 122.514ZM1203.18 152.582L1172.93 152.53L1172.88 181.201L1203.13 181.253L1203.18 152.582ZM1203.12 182.65L1172.87 182.598L1172.82 211.269L1203.08 211.322L1203.12 182.65ZM1203.07 212.719L1172.82 212.667L1172.77 241.338L1203.02 241.39L1203.07 212.719ZM1203.02 242.787L1172.77 242.735L1172.72 271.406L1202.97 271.458L1203.02 242.787ZM1202.97 272.855L1172.72 272.803L1172.67 301.474L1202.92 301.527L1202.97 272.855ZM1202.92 302.924L1172.67 302.872L1172.62 331.543L1202.87 331.595L1202.92 302.924ZM1202.86 332.992L1172.61 332.94L1172.56 361.611L1202.82 361.663L1202.86 332.992ZM1202.81 363.061L1172.56 363.008L1172.51 391.68L1202.76 391.732L1202.81 363.061ZM1202.76 393.129L1172.51 393.077L1172.46 421.748L1202.71 421.8L1202.76 393.129ZM1202.71 423.197L1172.46 423.145L1172.41 451.816L1202.66 451.868L1202.71 423.197ZM1202.66 453.266L1172.41 453.213L1172.36 481.885L1202.61 481.937L1202.66 453.266ZM1202.61 483.334L1172.35 483.282L1172.3 511.953L1202.56 512.005L1202.61 483.334ZM1202.55 513.402L1172.3 513.35L1172.25 542.021L1202.5 542.074L1202.55 513.402ZM1202.5 543.471L1172.25 543.418L1172.2 572.09L1202.45 572.142L1202.5 543.471ZM1202.45 573.539L1172.2 573.487L1172.15 602.158L1202.4 602.21L1202.45 573.539ZM1202.4 603.607L1172.15 603.555L1172.1 632.226L1202.35 632.279L1202.4 603.607ZM1202.35 633.676L1172.09 633.624L1172.05 662.295L1202.3 662.347L1202.35 633.676ZM1202.29 663.744L1172.04 663.692L1171.99 692.363L1202.24 692.415L1202.29 663.744ZM1202.24 693.812L1171.99 693.76L1171.94 722.431L1202.19 722.484L1202.24 693.812ZM1170.54 722.429L1170.59 693.758L1140.34 693.706L1140.29 722.377L1170.54 722.429ZM1138.89 722.374L1138.94 693.703L1108.69 693.651L1108.64 722.322L1138.89 722.374ZM1107.24 722.32L1107.29 693.649L1077.04 693.596L1076.99 722.268L1107.24 722.32ZM1075.59 722.265L1075.64 693.594L1045.39 693.542L1045.34 722.213L1075.59 722.265ZM1043.94 722.211L1043.99 693.539L1013.74 693.487L1013.69 722.158L1043.94 722.211ZM1012.29 722.156L1012.34 693.485L982.091 693.432L982.041 722.104L1012.29 722.156ZM980.644 722.101L980.693 693.43L950.44 693.378L950.391 722.049L980.644 722.101ZM948.994 722.047L949.043 693.375L918.79 693.323L918.74 721.994L948.994 722.047ZM917.343 721.992L917.393 693.321L887.139 693.269L887.09 721.94L917.343 721.992ZM885.693 721.937L885.742 693.266L855.491 693.214L855.441 721.885L885.693 721.937ZM854.044 721.883L854.094 693.212L823.841 693.159L823.791 721.831L854.044 721.883ZM822.394 721.828L822.443 693.157L792.19 693.105L792.141 721.776L822.394 721.828ZM790.743 721.773L790.793 693.102L760.54 693.05L760.49 721.721L790.743 721.773ZM759.093 721.719L759.143 693.048L728.891 692.995L728.842 721.667L759.093 721.719ZM727.445 721.664L727.494 692.993L697.239 692.941L697.19 721.612L727.445 721.664ZM695.792 721.61L695.842 692.938L665.591 692.886L665.541 721.557L695.792 721.61ZM664.144 721.555L664.193 692.884L633.94 692.832L633.891 721.503L664.144 721.555ZM632.494 721.5L632.543 692.829L602.29 692.777L602.24 721.448L632.494 721.5ZM600.843 721.446L600.893 692.775L570.64 692.722L570.59 721.394L600.843 721.446ZM569.193 721.391L569.242 692.72L538.991 692.668L538.941 721.339L569.193 721.391ZM537.544 721.336L537.594 692.665L507.341 692.613L507.291 721.284L537.544 721.336ZM505.894 721.282L505.943 692.611L475.688 692.558L475.639 721.23L505.894 721.282ZM474.242 721.227L474.291 692.556L444.04 692.504L443.99 721.175L474.242 721.227ZM442.593 721.173L442.643 692.501L412.39 692.449L412.34 721.12L442.593 721.173ZM410.943 721.118L410.992 692.447L380.739 692.395L380.69 721.066L410.943 721.118ZM379.292 721.063L379.342 692.392L349.089 692.34L349.039 721.011L379.292 721.063ZM347.642 721.009L347.691 692.338L317.438 692.285L317.389 720.956L347.642 721.009ZM315.992 720.954L316.041 692.283L285.79 692.231L285.74 720.902L315.992 720.954ZM284.343 720.899L284.393 692.228L254.138 692.176L254.088 720.847L284.343 720.899ZM252.691 720.845L252.741 692.174L222.489 692.122L222.44 720.793L252.691 720.845ZM221.043 720.79L221.092 692.119L190.841 692.067L190.791 720.738L221.043 720.79ZM189.394 720.736L189.444 692.064L159.189 692.012L159.139 720.683L189.394 720.736ZM157.742 720.681L157.791 692.01L127.54 691.958L127.491 720.629L157.742 720.681ZM127.543 690.56L157.794 690.613L157.843 661.941L127.592 661.889L127.543 690.56ZM127.594 660.492L157.846 660.544L157.895 631.873L127.644 631.821L127.594 660.492ZM127.646 630.424L157.898 630.476L157.947 601.805L127.696 601.752L127.646 630.424ZM127.698 600.355L157.949 600.408L157.999 571.736L127.748 571.684L127.698 600.355ZM127.75 570.287L158.001 570.339L158.051 541.668L127.8 541.616L127.75 570.287ZM127.802 540.219L158.053 540.271L158.103 511.6L127.852 511.547L127.802 540.219ZM127.854 510.15L158.105 510.203L158.155 481.531L127.903 481.479L127.854 510.15ZM127.906 480.082L158.157 480.134L158.206 451.463L127.955 451.411L127.906 480.082ZM127.958 450.014L158.209 450.066L158.258 421.395L128.007 421.342L127.958 450.014ZM128.01 419.945L158.261 419.997L158.31 391.326L128.059 391.274L128.01 419.945ZM128.062 389.877L158.313 389.929L158.362 361.258L128.111 361.206L128.062 389.877ZM128.114 359.808L158.365 359.861L158.414 331.189L128.163 331.137L128.114 359.808ZM128.165 329.74L158.417 329.792L158.466 301.121L128.215 301.069L128.165 329.74ZM128.217 299.672L158.469 299.724L158.518 271.053L128.267 271.001L128.217 299.672ZM128.269 269.603L158.52 269.656L158.57 240.984L128.319 240.932L128.269 269.603ZM128.321 239.535L158.572 239.587L158.622 210.916L128.371 210.864L128.321 239.535ZM128.373 209.467L158.624 209.519L158.674 180.848L128.423 180.795L128.373 209.467ZM128.425 179.398L158.676 179.451L158.726 150.779L128.474 150.727L128.425 179.398ZM128.477 149.33L158.728 149.382L158.777 120.711L128.526 120.659L128.477 149.33ZM160.175 120.713L160.125 149.385L190.38 149.437L190.43 120.766L160.175 120.713ZM191.827 120.768L191.778 149.439L222.029 149.491L222.078 120.82L191.827 120.768ZM223.475 120.823L223.426 149.494L253.677 149.546L253.727 120.875L223.475 120.823ZM255.124 120.877L255.074 149.548L285.329 149.601L285.379 120.93L255.124 120.877ZM286.776 120.932L286.727 149.603L316.978 149.655L317.027 120.984L286.776 120.932ZM318.425 120.987L318.375 149.658L348.628 149.71L348.678 121.039L318.425 120.987ZM350.075 121.041L350.025 149.712L380.279 149.765L380.328 121.093L350.075 121.041ZM381.725 121.096L381.676 149.767L411.929 149.819L411.979 121.148L381.725 121.096ZM413.376 121.15L413.326 149.822L443.579 149.874L443.629 121.203L413.376 121.15ZM445.026 121.205L444.977 149.876L475.228 149.928L475.277 121.257L445.026 121.205ZM476.674 121.26L476.625 149.931L506.88 149.983L506.93 121.312L476.674 121.26ZM508.327 121.314L508.277 149.986L538.53 150.038L538.58 121.367L508.327 121.314ZM539.977 121.369L539.928 150.04L570.179 150.092L570.229 121.421L539.977 121.369ZM571.626 121.424L571.576 150.095L601.829 150.147L601.879 121.476L571.626 121.424ZM603.276 121.478L603.227 150.149L633.48 150.202L633.529 121.53L603.276 121.478ZM634.926 121.533L634.877 150.204L665.13 150.256L665.18 121.585L634.926 121.533ZM666.577 121.587L666.527 150.259L696.779 150.311L696.828 121.64L666.577 121.587ZM698.225 121.642L698.176 150.313L728.431 150.365L728.48 121.694L698.225 121.642ZM729.878 121.697L729.828 150.368L760.079 150.42L760.129 121.749L729.878 121.697ZM761.526 121.751L761.476 150.423L791.73 150.475L791.779 121.804L761.526 121.751ZM793.176 121.806L793.127 150.477L823.38 150.529L823.43 121.858L793.176 121.806ZM824.827 121.861L824.777 150.532L855.03 150.584L855.08 121.913L824.827 121.861ZM856.477 121.915L856.428 150.586L886.679 150.639L886.728 121.967L856.477 121.915ZM888.125 121.97L888.076 150.641L918.329 150.693L918.379 122.022L888.125 121.97ZM919.776 122.024L919.726 150.696L949.98 150.748L950.029 122.077L919.776 122.024ZM951.426 122.079L951.377 150.75L981.63 150.802L981.68 122.131L951.426 122.079ZM983.077 122.134L983.027 150.805L1013.28 150.857L1013.33 122.186L983.077 122.134ZM1014.73 122.188L1014.68 150.86L1044.93 150.912L1044.98 122.241L1014.73 122.188ZM1046.38 122.243L1046.33 150.914L1076.58 150.966L1076.63 122.295L1046.38 122.243ZM1078.03 122.298L1077.98 150.969L1108.23 151.021L1108.28 122.35L1078.03 122.298ZM1109.68 122.352L1109.63 151.023L1139.88 151.076L1139.93 122.404L1109.68 122.352ZM1141.33 122.407L1141.28 151.078L1171.53 151.13L1171.58 122.459L1141.33 122.407ZM1171.53 152.527L1141.27 152.475L1141.23 181.146L1171.48 181.199L1171.53 152.527ZM1171.48 182.596L1141.22 182.544L1141.17 211.215L1171.43 211.267L1171.48 182.596ZM1171.42 212.664L1141.17 212.612L1141.12 241.283L1171.37 241.335L1171.42 212.664ZM1171.37 242.732L1141.12 242.68L1141.07 271.351L1171.32 271.404L1171.37 242.732ZM1171.32 272.801L1141.07 272.749L1141.02 301.42L1171.27 301.472L1171.32 272.801ZM1171.27 302.869L1141.02 302.817L1140.97 331.488L1171.22 331.54L1171.27 302.869ZM1171.22 332.938L1140.96 332.885L1140.91 361.557L1171.17 361.609L1171.22 332.938ZM1171.16 363.006L1140.91 362.954L1140.86 391.625L1171.12 391.677L1171.16 363.006ZM1171.11 393.074L1140.86 393.022L1140.81 421.693L1171.06 421.745L1171.11 393.074ZM1171.06 423.143L1140.81 423.09L1140.76 451.762L1171.01 451.814L1171.06 423.143ZM1171.01 453.211L1140.76 453.159L1140.71 481.83L1170.96 481.882L1171.01 453.211ZM1170.96 483.279L1140.7 483.227L1140.65 511.898L1170.91 511.951L1170.96 483.279ZM1170.91 513.348L1140.65 513.296L1140.6 541.967L1170.86 542.019L1170.91 513.348ZM1170.85 543.416L1140.6 543.364L1140.55 572.035L1170.8 572.087L1170.85 543.416ZM1170.8 573.484L1140.55 573.432L1140.5 602.103L1170.75 602.156L1170.8 573.484ZM1170.75 603.553L1140.5 603.501L1140.45 632.172L1170.7 632.224L1170.75 603.553ZM1170.7 633.621L1140.44 633.569L1140.39 662.24L1170.65 662.292L1170.7 633.621ZM1170.65 663.69L1140.39 663.637L1140.34 692.309L1170.6 692.361L1170.65 663.69ZM1138.95 692.306L1139 663.635L1108.74 663.583L1108.69 692.254L1138.95 692.306ZM1107.3 692.252L1107.34 663.58L1077.09 663.528L1077.04 692.199L1107.3 692.252ZM1075.65 692.197L1075.69 663.526L1045.44 663.473L1045.39 692.145L1075.65 692.197ZM1044 692.142L1044.05 663.471L1013.79 663.419L1013.74 692.09L1044 692.142ZM1012.34 692.088L1012.39 663.416L982.142 663.364L982.093 692.035L1012.34 692.088ZM980.696 692.033L980.745 663.362L950.492 663.31L950.443 691.981L980.696 692.033ZM949.045 691.978L949.095 663.307L918.842 663.255L918.792 691.926L949.045 691.978ZM917.395 691.924L917.445 663.252L887.191 663.2L887.142 691.871L917.395 691.924ZM885.745 691.869L885.794 663.198L855.543 663.146L855.493 691.817L885.745 691.869ZM854.096 691.814L854.146 663.143L823.892 663.091L823.843 691.762L854.096 691.814ZM822.446 691.76L822.495 663.089L792.242 663.036L792.193 691.708L822.446 691.76ZM790.795 691.705L790.845 663.034L760.592 662.982L760.542 691.653L790.795 691.705ZM759.145 691.651L759.195 662.979L728.943 662.927L728.894 691.598L759.145 691.651ZM727.497 691.596L727.546 662.925L697.291 662.872L697.242 691.544L727.497 691.596ZM695.844 691.541L695.894 662.87L665.642 662.818L665.593 691.489L695.844 691.541ZM664.196 691.487L664.245 662.815L633.992 662.763L633.943 691.434L664.196 691.487ZM632.545 691.432L632.595 662.761L602.342 662.709L602.292 691.38L632.545 691.432ZM600.895 691.377L600.945 662.706L570.691 662.654L570.642 691.325L600.895 691.377ZM569.245 691.323L569.294 662.652L539.043 662.599L538.993 691.271L569.245 691.323ZM537.596 691.268L537.646 662.597L507.392 662.545L507.343 691.216L537.596 691.268ZM505.946 691.214L505.995 662.542L475.74 662.49L475.691 691.161L505.946 691.214ZM474.293 691.159L474.343 662.488L444.092 662.435L444.042 691.107L474.293 691.159ZM442.645 691.104L442.695 662.433L412.441 662.381L412.392 691.052L442.645 691.104ZM410.995 691.05L411.044 662.378L380.791 662.326L380.741 690.997L410.995 691.05ZM379.344 690.995L379.394 662.324L349.141 662.272L349.091 690.943L379.344 690.995ZM347.694 690.94L347.743 662.269L317.49 662.217L317.441 690.888L347.694 690.94ZM316.044 690.886L316.093 662.215L285.842 662.162L285.792 690.834L316.044 690.886ZM284.395 690.831L284.445 662.16L254.19 662.108L254.14 690.779L284.395 690.831ZM252.743 690.776L252.792 662.105L222.541 662.053L222.492 690.724L252.743 690.776ZM221.095 690.722L221.144 662.051L190.893 661.998L190.843 690.67L221.095 690.722ZM189.446 690.667L189.496 661.996L159.24 661.944L159.191 690.615L189.446 690.667ZM159.243 660.547L189.498 660.599L189.547 631.928L159.292 631.875L159.243 660.547ZM159.295 630.478L189.55 630.531L189.599 601.859L159.344 601.807L159.295 630.478ZM159.347 600.41L189.602 600.462L189.651 571.791L159.396 571.739L159.347 600.41ZM159.399 570.342L189.654 570.394L189.703 541.723L159.448 541.67L159.399 570.342ZM159.45 540.273L189.706 540.325L189.755 511.654L159.5 511.602L159.45 540.273ZM159.502 510.205L189.757 510.257L189.807 481.586L159.552 481.534L159.502 510.205ZM159.554 480.137L189.809 480.189L189.859 451.518L159.604 451.465L159.554 480.137ZM159.606 450.068L189.861 450.12L189.911 421.449L159.656 421.397L159.606 450.068ZM159.658 420L189.913 420.052L189.963 391.381L159.708 391.329L159.658 420ZM159.71 389.931L189.965 389.984L190.015 361.312L159.76 361.26L159.71 389.931ZM159.762 359.863L190.017 359.915L190.066 331.244L159.811 331.192L159.762 359.863ZM159.814 329.795L190.069 329.847L190.118 301.176L159.863 301.124L159.814 329.795ZM159.866 299.726L190.121 299.779L190.17 271.107L159.915 271.055L159.866 299.726ZM159.918 269.658L190.173 269.71L190.222 241.039L159.967 240.987L159.918 269.658ZM159.97 239.59L190.225 239.642L190.274 210.971L160.019 210.918L159.97 239.59ZM160.021 209.521L190.277 209.574L190.326 180.902L160.071 180.85L160.021 209.521ZM160.073 179.453L190.328 179.505L190.378 150.834L160.123 150.782L160.073 179.453ZM191.775 150.836L191.726 179.508L221.977 179.56L222.026 150.889L191.775 150.836ZM223.424 150.891L223.374 179.562L253.625 179.614L253.675 150.943L223.424 150.891ZM255.072 150.946L255.023 179.617L285.278 179.669L285.327 150.998L255.072 150.946ZM286.724 151L286.675 179.671L316.926 179.724L316.975 151.052L286.724 151ZM318.373 151.055L318.323 179.726L348.576 179.778L348.626 151.107L318.373 151.055ZM350.023 151.11L349.973 179.781L380.227 179.833L380.276 151.162L350.023 151.11ZM381.673 151.164L381.624 179.835L411.877 179.888L411.927 151.216L381.673 151.164ZM413.324 151.219L413.274 179.89L443.528 179.942L443.577 151.271L413.324 151.219ZM444.974 151.273L444.925 179.945L475.176 179.997L475.225 151.326L444.974 151.273ZM476.622 151.328L476.573 179.999L506.828 180.051L506.878 151.38L476.622 151.328ZM508.275 151.383L508.225 180.054L538.479 180.106L538.528 151.435L508.275 151.383ZM539.925 151.437L539.876 180.108L570.127 180.161L570.177 151.489L539.925 151.437ZM571.574 151.492L571.524 180.163L601.778 180.215L601.827 151.544L571.574 151.492ZM603.224 151.547L603.175 180.218L633.428 180.27L633.477 151.599L603.224 151.547ZM634.874 151.601L634.825 180.272L665.078 180.325L665.128 151.653L634.874 151.601ZM666.525 151.656L666.475 180.327L696.727 180.379L696.776 151.708L666.525 151.656ZM698.173 151.71L698.124 180.382L728.379 180.434L728.429 151.763L698.173 151.71ZM729.826 151.765L729.776 180.436L760.027 180.488L760.077 151.817L729.826 151.765ZM761.474 151.82L761.424 180.491L791.678 180.543L791.727 151.872L761.474 151.82ZM793.124 151.874L793.075 180.545L823.328 180.598L823.378 151.927L793.124 151.874ZM824.775 151.929L824.725 180.6L854.979 180.652L855.028 151.981L824.775 151.929ZM856.425 151.984L856.376 180.655L886.627 180.707L886.676 152.036L856.425 151.984ZM888.074 152.038L888.024 180.709L918.277 180.762L918.327 152.09L888.074 152.038ZM919.724 152.093L919.674 180.764L949.928 180.816L949.977 152.145L919.724 152.093ZM951.374 152.147L951.325 180.819L981.578 180.871L981.628 152.2L951.374 152.147ZM983.025 152.202L982.975 180.873L1013.23 180.925L1013.28 152.254L983.025 152.202ZM1014.67 152.257L1014.62 180.928L1044.88 180.98L1044.93 152.309L1014.67 152.257ZM1046.33 152.311L1046.28 180.983L1076.53 181.035L1076.58 152.364L1046.33 152.311ZM1077.97 152.366L1077.92 181.037L1108.18 181.089L1108.23 152.418L1077.97 152.366ZM1109.62 152.421L1109.57 181.092L1139.83 181.144L1139.88 152.473L1109.62 152.421ZM1139.83 182.541L1109.57 182.489L1109.52 211.16L1139.78 211.212L1139.83 182.541ZM1139.77 212.61L1109.52 212.557L1109.47 241.228L1139.72 241.281L1139.77 212.61ZM1139.72 242.678L1109.47 242.626L1109.42 271.297L1139.67 271.349L1139.72 242.678ZM1139.67 272.746L1109.42 272.694L1109.37 301.365L1139.62 301.417L1139.67 272.746ZM1139.62 302.815L1109.36 302.762L1109.32 331.434L1139.57 331.486L1139.62 302.815ZM1139.57 332.883L1109.31 332.831L1109.26 361.502L1139.52 361.554L1139.57 332.883ZM1139.51 362.951L1109.26 362.899L1109.21 391.57L1139.46 391.623L1139.51 362.951ZM1139.46 393.02L1109.21 392.967L1109.16 421.639L1139.41 421.691L1139.46 393.02ZM1139.41 423.088L1109.16 423.036L1109.11 451.707L1139.36 451.759L1139.41 423.088ZM1139.36 453.156L1109.11 453.104L1109.06 481.775L1139.31 481.828L1139.36 453.156ZM1139.31 483.225L1109.05 483.173L1109 511.844L1139.26 511.896L1139.31 483.225ZM1139.25 513.293L1109 513.241L1108.95 541.912L1139.21 541.964L1139.25 513.293ZM1139.2 543.361L1108.95 543.309L1108.9 571.98L1139.15 572.033L1139.2 543.361ZM1139.15 573.43L1108.9 573.378L1108.85 602.049L1139.1 602.101L1139.15 573.43ZM1139.1 603.498L1108.85 603.446L1108.8 632.117L1139.05 632.169L1139.1 603.498ZM1139.05 633.566L1108.79 633.514L1108.74 662.185L1139 662.238L1139.05 633.566ZM1107.35 662.183L1107.4 633.512L1077.14 633.46L1077.09 662.131L1107.35 662.183ZM1075.7 662.128L1075.75 633.457L1045.5 633.405L1045.45 662.076L1075.7 662.128ZM1044.05 662.074L1044.1 633.403L1013.84 633.35L1013.79 662.022L1044.05 662.074ZM1012.4 662.019L1012.45 633.348L982.194 633.296L982.145 661.967L1012.4 662.019ZM980.748 661.965L980.797 633.293L950.544 633.241L950.495 661.912L980.748 661.965ZM949.097 661.91L949.147 633.239L918.894 633.187L918.844 661.858L949.097 661.91ZM917.447 661.855L917.496 633.184L887.243 633.132L887.194 661.803L917.447 661.855ZM885.797 661.801L885.846 633.129L855.595 633.077L855.545 661.748L885.797 661.801ZM854.148 661.746L854.198 633.075L823.944 633.023L823.895 661.694L854.148 661.746ZM822.498 661.691L822.547 633.02L792.294 632.968L792.244 661.639L822.498 661.691ZM790.847 661.637L790.897 632.966L760.644 632.913L760.594 661.585L790.847 661.637ZM759.197 661.582L759.246 632.911L728.995 632.859L728.946 661.53L759.197 661.582ZM727.549 661.528L727.598 632.856L697.343 632.804L697.293 661.475L727.549 661.528ZM695.896 661.473L695.946 632.802L665.694 632.75L665.645 661.421L695.896 661.473ZM664.248 661.418L664.297 632.747L634.044 632.695L633.994 661.366L664.248 661.418ZM632.597 661.364L632.647 632.692L602.394 632.64L602.344 661.311L632.597 661.364ZM600.947 661.309L600.997 632.638L570.743 632.586L570.694 661.257L600.947 661.309ZM569.297 661.254L569.346 632.583L539.095 632.531L539.045 661.202L569.297 661.254ZM537.648 661.2L537.698 632.529L507.444 632.476L507.395 661.148L537.648 661.2ZM505.998 661.145L506.047 632.474L475.792 632.422L475.742 661.093L505.998 661.145ZM474.345 661.091L474.395 632.419L444.144 632.367L444.094 661.038L474.345 661.091ZM442.697 661.036L442.747 632.365L412.493 632.312L412.444 660.984L442.697 661.036ZM411.047 660.981L411.096 632.31L380.843 632.258L380.793 660.929L411.047 660.981ZM379.396 660.927L379.446 632.255L349.192 632.203L349.143 660.874L379.396 660.927ZM347.746 660.872L347.795 632.201L317.542 632.149L317.493 660.82L347.746 660.872ZM316.096 660.817L316.145 632.146L285.894 632.094L285.844 660.765L316.096 660.817ZM284.447 660.763L284.497 632.092L254.242 632.039L254.192 660.711L284.447 660.763ZM252.795 660.708L252.844 632.037L222.593 631.985L222.544 660.656L252.795 660.708ZM221.146 660.654L221.196 631.982L190.945 631.93L190.895 660.601L221.146 660.654ZM190.947 630.533L221.198 630.585L221.248 601.914L190.997 601.862L190.947 630.533ZM190.999 600.465L221.25 600.517L221.3 571.846L191.048 571.793L190.999 600.465ZM191.051 570.396L221.302 570.448L221.352 541.777L191.1 541.725L191.051 570.396ZM191.103 540.328L221.354 540.38L221.404 511.709L191.152 511.657L191.103 540.328ZM191.155 510.26L221.406 510.312L221.455 481.641L191.204 481.588L191.155 510.26ZM191.207 480.191L221.458 480.243L221.507 451.572L191.256 451.52L191.207 480.191ZM191.258 450.123L221.51 450.175L221.559 421.504L191.308 421.452L191.258 450.123ZM191.31 420.054L221.562 420.107L221.611 391.435L191.36 391.383L191.31 420.054ZM191.362 389.986L221.614 390.038L221.663 361.367L191.412 361.315L191.362 389.986ZM191.414 359.918L221.666 359.97L221.715 331.299L191.464 331.247L191.414 359.918ZM191.466 329.849L221.717 329.902L221.767 301.23L191.516 301.178L191.466 329.849ZM191.518 299.781L221.769 299.833L221.819 271.162L191.568 271.11L191.518 299.781ZM191.57 269.713L221.821 269.765L221.871 241.094L191.619 241.041L191.57 269.713ZM191.622 239.644L221.873 239.697L221.923 211.025L191.671 210.973L191.622 239.644ZM191.674 209.576L221.925 209.628L221.975 180.957L191.723 180.905L191.674 209.576ZM223.372 180.959L223.322 209.631L253.573 209.683L253.623 181.012L223.372 180.959ZM255.02 181.014L254.971 209.685L285.226 209.737L285.275 181.066L255.02 181.014ZM286.672 181.069L286.623 209.74L316.874 209.792L316.924 181.121L286.672 181.069ZM318.321 181.123L318.271 209.794L348.524 209.847L348.574 181.175L318.321 181.123ZM349.971 181.178L349.921 209.849L380.175 209.901L380.224 181.23L349.971 181.178ZM381.621 181.233L381.572 209.904L411.825 209.956L411.875 181.285L381.621 181.233ZM413.272 181.287L413.222 209.958L443.476 210.011L443.525 181.339L413.272 181.287ZM444.922 181.342L444.873 210.013L475.124 210.065L475.173 181.394L444.922 181.342ZM476.571 181.396L476.521 210.068L506.776 210.12L506.826 181.449L476.571 181.396ZM508.223 181.451L508.173 210.122L538.427 210.174L538.476 181.503L508.223 181.451ZM539.873 181.506L539.824 210.177L570.075 210.229L570.125 181.558L539.873 181.506ZM571.522 181.56L571.472 210.231L601.726 210.284L601.775 181.612L571.522 181.56ZM603.172 181.615L603.123 210.286L633.376 210.338L633.425 181.667L603.172 181.615ZM634.823 181.67L634.773 210.341L665.026 210.393L665.076 181.722L634.823 181.67ZM666.473 181.724L666.423 210.395L696.675 210.448L696.724 181.776L666.473 181.724ZM698.122 181.779L698.072 210.45L728.327 210.502L728.377 181.831L698.122 181.779ZM729.774 181.833L729.724 210.505L759.975 210.557L760.025 181.886L729.774 181.833ZM761.422 181.888L761.373 210.559L791.626 210.611L791.675 181.94L761.422 181.888ZM793.072 181.943L793.023 210.614L823.276 210.666L823.326 181.995L793.072 181.943ZM824.723 181.997L824.673 210.668L854.927 210.721L854.976 182.049L824.723 181.997ZM856.373 182.052L856.324 210.723L886.575 210.775L886.625 182.104L856.373 182.052ZM888.022 182.107L887.972 210.778L918.225 210.83L918.275 182.159L888.022 182.107ZM919.672 182.161L919.623 210.832L949.876 210.885L949.925 182.213L919.672 182.161ZM951.322 182.216L951.273 210.887L981.526 210.939L981.576 182.268L951.322 182.216ZM982.973 182.27L982.923 210.942L1013.17 210.994L1013.22 182.323L982.973 182.27ZM1014.62 182.325L1014.57 210.996L1044.83 211.048L1044.88 182.377L1014.62 182.325ZM1046.27 182.38L1046.22 211.051L1076.48 211.103L1076.52 182.432L1046.27 182.38ZM1077.92 182.434L1077.87 211.105L1108.13 211.158L1108.18 182.487L1077.92 182.434ZM1108.12 212.555L1077.87 212.503L1077.82 241.174L1108.07 241.226L1108.12 212.555ZM1108.07 242.623L1077.82 242.571L1077.77 271.242L1108.02 271.294L1108.07 242.623ZM1108.02 272.692L1077.77 272.639L1077.72 301.311L1107.97 301.363L1108.02 272.692ZM1107.97 302.76L1077.71 302.708L1077.67 331.379L1107.92 331.431L1107.97 302.76ZM1107.92 332.828L1077.66 332.776L1077.61 361.447L1107.87 361.5L1107.92 332.828ZM1107.86 362.897L1077.61 362.844L1077.56 391.516L1107.81 391.568L1107.86 362.897ZM1107.81 392.965L1077.56 392.913L1077.51 421.584L1107.76 421.636L1107.81 392.965ZM1107.76 423.033L1077.51 422.981L1077.46 451.652L1107.71 451.705L1107.76 423.033ZM1107.71 453.102L1077.45 453.05L1077.41 481.721L1107.66 481.773L1107.71 453.102ZM1107.66 483.17L1077.4 483.118L1077.35 511.789L1107.61 511.841L1107.66 483.17ZM1107.6 513.239L1077.35 513.186L1077.3 541.857L1107.55 541.91L1107.6 513.239ZM1107.55 543.307L1077.3 543.255L1077.25 571.926L1107.5 571.978L1107.55 543.307ZM1107.5 573.375L1077.25 573.323L1077.2 601.994L1107.45 602.046L1107.5 573.375ZM1107.45 603.444L1077.2 603.391L1077.15 632.063L1107.4 632.115L1107.45 603.444ZM1075.75 632.06L1075.8 603.389L1045.55 603.337L1045.5 632.008L1075.75 632.06ZM1044.1 632.005L1044.15 603.334L1013.89 603.282L1013.85 631.953L1044.1 632.005ZM1012.45 631.951L1012.5 603.28L982.246 603.227L982.197 631.899L1012.45 631.951ZM980.8 631.896L980.849 603.225L950.596 603.173L950.546 631.844L980.8 631.896ZM949.149 631.842L949.199 603.17L918.945 603.118L918.896 631.789L949.149 631.842ZM917.499 631.787L917.548 603.116L887.295 603.063L887.246 631.735L917.499 631.787ZM885.848 631.732L885.898 603.061L855.647 603.009L855.597 631.68L885.848 631.732ZM854.2 631.678L854.249 603.006L823.996 602.954L823.947 631.625L854.2 631.678ZM822.55 631.623L822.599 602.952L792.346 602.9L792.296 631.571L822.55 631.623ZM790.899 631.568L790.949 602.897L760.695 602.845L760.646 631.516L790.899 631.568ZM759.249 631.514L759.298 602.843L729.047 602.79L728.998 631.462L759.249 631.514ZM727.601 631.459L727.65 602.788L697.395 602.736L697.345 631.407L727.601 631.459ZM695.948 631.405L695.998 602.733L665.746 602.681L665.697 631.352L695.948 631.405ZM664.3 631.35L664.349 602.679L634.096 602.627L634.046 631.298L664.3 631.35ZM632.649 631.295L632.699 602.624L602.446 602.572L602.396 631.243L632.649 631.295ZM600.999 631.241L601.049 602.569L570.795 602.517L570.746 631.188L600.999 631.241ZM569.349 631.186L569.398 602.515L539.147 602.463L539.097 631.134L569.349 631.186ZM537.7 631.131L537.75 602.46L507.496 602.408L507.447 631.079L537.7 631.131ZM506.05 631.077L506.099 602.406L475.844 602.353L475.794 631.025L506.05 631.077ZM474.397 631.022L474.447 602.351L444.196 602.299L444.146 630.97L474.397 631.022ZM442.749 630.968L442.799 602.296L412.545 602.244L412.496 630.915L442.749 630.968ZM411.099 630.913L411.148 602.242L380.895 602.19L380.845 630.861L411.099 630.913ZM379.448 630.858L379.498 602.187L349.244 602.135L349.195 630.806L379.448 630.858ZM347.798 630.804L347.847 602.132L317.594 602.08L317.545 630.751L347.798 630.804ZM316.147 630.749L316.197 602.078L285.946 602.026L285.896 630.697L316.147 630.749ZM284.499 630.694L284.549 602.023L254.293 601.971L254.244 630.642L284.499 630.694ZM252.847 630.64L252.896 601.969L222.645 601.916L222.596 630.588L252.847 630.64ZM222.647 600.519L252.899 600.571L252.948 571.9L222.697 571.848L222.647 600.519ZM222.699 570.451L252.951 570.503L253 541.832L222.749 541.78L222.699 570.451ZM222.751 540.382L253.002 540.435L253.052 511.764L222.801 511.711L222.751 540.382ZM222.803 510.314L253.054 510.366L253.104 481.695L222.853 481.643L222.803 510.314ZM222.855 480.246L253.106 480.298L253.156 451.627L222.905 451.575L222.855 480.246ZM222.907 450.177L253.158 450.23L253.208 421.558L222.956 421.506L222.907 450.177ZM222.959 420.109L253.21 420.161L253.26 391.49L223.008 391.438L222.959 420.109ZM223.011 390.041L253.262 390.093L253.312 361.422L223.06 361.37L223.011 390.041ZM223.063 359.972L253.314 360.025L253.363 331.353L223.112 331.301L223.063 359.972ZM223.115 329.904L253.366 329.956L253.415 301.285L223.164 301.233L223.115 329.904ZM223.167 299.836L253.418 299.888L253.467 271.217L223.216 271.164L223.167 299.836ZM223.218 269.767L253.47 269.819L253.519 241.148L223.268 241.096L223.218 269.767ZM223.27 239.699L253.521 239.751L253.571 211.08L223.32 211.028L223.27 239.699ZM254.968 211.082L254.919 239.754L285.174 239.806L285.223 211.135L254.968 211.082ZM286.62 211.137L286.571 239.808L316.822 239.86L316.872 211.189L286.62 211.137ZM318.269 211.192L318.219 239.863L348.472 239.915L348.522 211.244L318.269 211.192ZM349.919 211.246L349.87 239.917L380.123 239.97L380.172 211.298L349.919 211.246ZM381.569 211.301L381.52 239.972L411.773 240.024L411.823 211.353L381.569 211.301ZM413.22 211.355L413.17 240.027L443.424 240.079L443.473 211.408L413.22 211.355ZM444.87 211.41L444.821 240.081L475.072 240.134L475.121 211.462L444.87 211.41ZM476.519 211.465L476.469 240.136L506.724 240.188L506.774 211.517L476.519 211.465ZM508.171 211.519L508.121 240.191L538.375 240.243L538.424 211.572L508.171 211.519ZM539.821 211.574L539.772 240.245L570.023 240.297L570.073 211.626L539.821 211.574ZM571.47 211.629L571.42 240.3L601.674 240.352L601.723 211.681L571.47 211.629ZM603.12 211.683L603.071 240.354L633.324 240.407L633.373 211.735L603.12 211.683ZM634.771 211.738L634.721 240.409L664.974 240.461L665.024 211.79L634.771 211.738ZM666.421 211.793L666.371 240.464L696.623 240.516L696.672 211.845L666.421 211.793ZM698.07 211.847L698.02 240.518L728.275 240.571L728.325 211.899L698.07 211.847ZM729.722 211.902L729.672 240.573L759.924 240.625L759.973 211.954L729.722 211.902ZM761.37 211.956L761.321 240.628L791.574 240.68L791.623 212.009L761.37 211.956ZM793.021 212.011L792.971 240.682L823.224 240.734L823.274 212.063L793.021 212.011ZM824.671 212.066L824.621 240.737L854.875 240.789L854.924 212.118L824.671 212.066ZM856.321 212.12L856.272 240.791L886.523 240.844L886.573 212.172L856.321 212.12ZM887.97 212.175L887.92 240.846L918.174 240.898L918.223 212.227L887.97 212.175ZM919.62 212.23L919.571 240.901L949.824 240.953L949.873 212.282L919.62 212.23ZM951.271 212.284L951.221 240.955L981.474 241.008L981.524 212.336L951.271 212.284ZM982.921 212.339L982.872 241.01L1013.12 241.062L1013.17 212.391L982.921 212.339ZM1014.57 212.393L1014.52 241.065L1044.78 241.117L1044.82 212.446L1014.57 212.393ZM1046.22 212.448L1046.17 241.119L1076.42 241.171L1076.47 212.5L1046.22 212.448ZM1076.42 242.569L1046.17 242.516L1046.12 271.188L1076.37 271.24L1076.42 242.569ZM1076.37 272.637L1046.12 272.585L1046.07 301.256L1076.32 301.308L1076.37 272.637ZM1076.32 302.705L1046.07 302.653L1046.02 331.324L1076.27 331.377L1076.32 302.705ZM1076.27 332.774L1046.01 332.721L1045.96 361.393L1076.22 361.445L1076.27 332.774ZM1076.21 362.842L1045.96 362.79L1045.91 391.461L1076.16 391.513L1076.21 362.842ZM1076.16 392.91L1045.91 392.858L1045.86 421.529L1076.11 421.582L1076.16 392.91ZM1076.11 422.979L1045.86 422.927L1045.81 451.598L1076.06 451.65L1076.11 422.979ZM1076.06 453.047L1045.81 452.995L1045.76 481.666L1076.01 481.718L1076.06 453.047ZM1076.01 483.116L1045.75 483.063L1045.71 511.734L1075.96 511.787L1076.01 483.116ZM1075.95 513.184L1045.7 513.132L1045.65 541.803L1075.9 541.855L1075.95 513.184ZM1075.9 543.252L1045.65 543.2L1045.6 571.871L1075.85 571.923L1075.9 543.252ZM1075.85 573.321L1045.6 573.268L1045.55 601.94L1075.8 601.992L1075.85 573.321ZM1044.15 601.937L1044.2 573.266L1013.95 573.214L1013.9 601.885L1044.15 601.937ZM1012.5 601.883L1012.55 573.211L982.298 573.159L982.249 601.83L1012.5 601.883ZM980.852 601.828L980.901 573.157L950.648 573.104L950.598 601.776L980.852 601.828ZM949.201 601.773L949.251 573.102L918.997 573.05L918.948 601.721L949.201 601.773ZM917.551 601.719L917.6 573.047L887.347 572.995L887.297 601.666L917.551 601.719ZM885.9 601.664L885.95 572.993L855.699 572.941L855.649 601.612L885.9 601.664ZM854.252 601.609L854.301 572.938L824.048 572.886L823.999 601.557L854.252 601.609ZM822.602 601.555L822.651 572.884L792.398 572.831L792.348 601.503L822.602 601.555ZM790.951 601.5L791.001 572.829L760.747 572.777L760.698 601.448L790.951 601.5ZM759.301 601.445L759.35 572.774L729.099 572.722L729.05 601.393L759.301 601.445ZM727.653 601.391L727.702 572.72L697.447 572.667L697.397 601.339L727.653 601.391ZM696 601.336L696.05 572.665L665.798 572.613L665.749 601.284L696 601.336ZM664.352 601.282L664.401 572.61L634.148 572.558L634.098 601.229L664.352 601.282ZM632.701 601.227L632.751 572.556L602.498 572.503L602.448 601.175L632.701 601.227ZM601.051 601.172L601.1 572.501L570.847 572.449L570.798 601.12L601.051 601.172ZM569.401 601.118L569.45 572.446L539.199 572.394L539.149 601.065L569.401 601.118ZM537.752 601.063L537.801 572.392L507.548 572.34L507.499 601.011L537.752 601.063ZM506.102 601.008L506.151 572.337L475.896 572.285L475.846 600.956L506.102 601.008ZM474.449 600.954L474.499 572.283L444.248 572.23L444.198 600.902L474.449 600.954ZM442.801 600.899L442.85 572.228L412.597 572.176L412.548 600.847L442.801 600.899ZM411.151 600.845L411.2 572.173L380.947 572.121L380.897 600.792L411.151 600.845ZM379.5 600.79L379.549 572.119L349.296 572.066L349.247 600.738L379.5 600.79ZM347.85 600.735L347.899 572.064L317.646 572.012L317.597 600.683L347.85 600.735ZM316.199 600.681L316.249 572.009L285.998 571.957L285.948 600.628L316.199 600.681ZM284.551 600.626L284.6 571.955L254.345 571.903L254.296 600.574L284.551 600.626ZM254.348 570.505L284.603 570.558L284.652 541.887L254.397 541.834L254.348 570.505ZM254.4 540.437L284.655 540.489L284.704 511.818L254.449 511.766L254.4 540.437ZM254.452 510.369L284.707 510.421L284.756 481.75L254.501 481.698L254.452 510.369ZM254.503 480.3L284.759 480.353L284.808 451.681L254.553 451.629L254.503 480.3ZM254.555 450.232L284.81 450.284L284.86 421.613L254.605 421.561L254.555 450.232ZM254.607 420.164L284.862 420.216L284.912 391.545L254.657 391.493L254.607 420.164ZM254.659 390.095L284.914 390.148L284.964 361.476L254.709 361.424L254.659 390.095ZM254.711 360.027L284.966 360.079L285.016 331.408L254.761 331.356L254.711 360.027ZM254.763 329.959L285.018 330.011L285.067 301.34L254.813 301.287L254.763 329.959ZM254.815 299.89L285.07 299.942L285.119 271.271L254.864 271.219L254.815 299.89ZM254.867 269.822L285.122 269.874L285.171 241.203L254.916 241.151L254.867 269.822ZM286.568 241.205L286.519 269.877L316.77 269.929L316.82 241.258L286.568 241.205ZM318.217 241.26L318.167 269.931L348.42 269.983L348.47 241.312L318.217 241.26ZM349.867 241.315L349.818 269.986L380.071 270.038L380.12 241.367L349.867 241.315ZM381.517 241.369L381.468 270.04L411.721 270.093L411.771 241.421L381.517 241.369ZM413.168 241.424L413.119 270.095L443.372 270.147L443.421 241.476L413.168 241.424ZM444.818 241.478L444.769 270.15L475.02 270.202L475.07 241.531L444.818 241.478ZM476.467 241.533L476.417 270.204L506.672 270.257L506.722 241.585L476.467 241.533ZM508.119 241.588L508.07 270.259L538.323 270.311L538.372 241.64L508.119 241.588ZM539.769 241.642L539.72 270.314L569.971 270.366L570.021 241.695L539.769 241.642ZM571.418 241.697L571.369 270.368L601.622 270.42L601.671 241.749L571.418 241.697ZM603.068 241.752L603.019 270.423L633.272 270.475L633.322 241.804L603.068 241.752ZM634.719 241.806L634.669 270.477L664.922 270.53L664.972 241.858L634.719 241.806ZM666.369 241.861L666.32 270.532L696.571 270.584L696.62 241.913L666.369 241.861ZM698.018 241.915L697.968 270.587L728.223 270.639L728.273 241.968L698.018 241.915ZM729.67 241.97L729.62 270.641L759.872 270.694L759.921 242.022L729.67 241.97ZM761.318 242.025L761.269 270.696L791.522 270.748L791.572 242.077L761.318 242.025ZM792.969 242.079L792.919 270.751L823.172 270.803L823.222 242.132L792.969 242.079ZM824.619 242.134L824.57 270.805L854.823 270.857L854.872 242.186L824.619 242.134ZM856.269 242.189L856.22 270.86L886.471 270.912L886.521 242.241L856.269 242.189ZM887.918 242.243L887.868 270.914L918.122 270.967L918.171 242.295L887.918 242.243ZM919.568 242.298L919.519 270.969L949.772 271.021L949.822 242.35L919.568 242.298ZM951.219 242.353L951.169 271.024L981.422 271.076L981.472 242.405L951.219 242.353ZM982.869 242.407L982.82 271.078L1013.07 271.131L1013.12 242.459L982.869 242.407ZM1014.52 242.462L1014.47 271.133L1044.72 271.185L1044.77 242.514L1014.52 242.462ZM1044.72 272.582L1014.47 272.53L1014.42 301.201L1044.67 301.254L1044.72 272.582ZM1044.67 302.651L1014.41 302.598L1014.36 331.27L1044.62 331.322L1044.67 302.651ZM1044.62 332.719L1014.36 332.667L1014.31 361.338L1044.57 361.39L1044.62 332.719ZM1044.57 362.787L1014.31 362.735L1014.26 391.406L1044.52 391.459L1044.57 362.787ZM1044.51 392.856L1014.26 392.804L1014.21 421.475L1044.46 421.527L1044.51 392.856ZM1044.46 422.924L1014.21 422.872L1014.16 451.543L1044.41 451.595L1044.46 422.924ZM1044.41 452.992L1014.15 452.94L1014.1 481.612L1044.36 481.664L1044.41 452.992ZM1044.36 483.061L1014.1 483.009L1014.05 511.68L1044.31 511.732L1044.36 483.061ZM1044.31 513.129L1014.05 513.077L1014 541.748L1044.26 541.8L1044.31 513.129ZM1044.25 543.198L1014 543.145L1013.95 571.817L1044.2 571.869L1044.25 543.198ZM1012.55 571.814L1012.6 543.143L982.35 543.091L982.301 571.762L1012.55 571.814ZM980.903 571.76L980.953 543.088L950.7 543.036L950.65 571.707L980.903 571.76ZM949.253 571.705L949.302 543.034L919.049 542.981L919 571.653L949.253 571.705ZM917.603 571.65L917.652 542.979L887.399 542.927L887.349 571.598L917.603 571.65ZM885.952 571.596L886.002 542.924L855.75 542.872L855.701 571.543L885.952 571.596ZM854.304 571.541L854.353 542.87L824.1 542.818L824.051 571.489L854.304 571.541ZM822.653 571.486L822.703 542.815L792.45 542.763L792.4 571.434L822.653 571.486ZM791.003 571.432L791.052 542.76L760.799 542.708L760.75 571.38L791.003 571.432ZM759.353 571.377L759.402 542.706L729.151 542.654L729.102 571.325L759.353 571.377ZM727.704 571.323L727.754 542.651L697.499 542.599L697.449 571.27L727.704 571.323ZM696.052 571.268L696.102 542.597L665.85 542.544L665.801 571.216L696.052 571.268ZM664.403 571.213L664.453 542.542L634.2 542.49L634.15 571.161L664.403 571.213ZM632.753 571.159L632.803 542.487L602.549 542.435L602.5 571.106L632.753 571.159ZM601.103 571.104L601.152 542.433L570.899 542.381L570.85 571.052L601.103 571.104ZM569.452 571.049L569.502 542.378L539.25 542.326L539.201 570.997L569.452 571.049ZM537.804 570.995L537.853 542.324L507.6 542.271L507.551 570.943L537.804 570.995ZM506.153 570.94L506.203 542.269L475.948 542.217L475.898 570.888L506.153 570.94ZM474.501 570.885L474.551 542.214L444.299 542.162L444.25 570.833L474.501 570.885ZM442.853 570.831L442.902 542.16L412.649 542.107L412.6 570.779L442.853 570.831ZM411.202 570.776L411.252 542.105L380.999 542.053L380.949 570.724L411.202 570.776ZM379.552 570.722L379.601 542.05L349.348 541.998L349.299 570.669L379.552 570.722ZM347.901 570.667L347.951 541.996L317.698 541.944L317.648 570.615L347.901 570.667ZM316.251 570.612L316.301 541.941L286.049 541.889L286 570.56L316.251 570.612ZM286.052 540.492L316.303 540.544L316.353 511.873L286.101 511.821L286.052 540.492ZM286.104 510.423L316.355 510.476L316.405 481.804L286.153 481.752L286.104 510.423ZM286.156 480.355L316.407 480.407L316.456 451.736L286.205 451.684L286.156 480.355ZM286.208 450.287L316.459 450.339L316.508 421.668L286.257 421.615L286.208 450.287ZM286.259 420.218L316.511 420.271L316.56 391.599L286.309 391.547L286.259 420.218ZM286.311 390.15L316.563 390.202L316.612 361.531L286.361 361.479L286.311 390.15ZM286.363 360.082L316.615 360.134L316.664 331.463L286.413 331.41L286.363 360.082ZM286.415 330.013L316.666 330.065L316.716 301.394L286.465 301.342L286.415 330.013ZM286.467 299.945L316.718 299.997L316.768 271.326L286.517 271.274L286.467 299.945ZM318.165 271.328L318.115 299.999L348.369 300.052L348.418 271.381L318.165 271.328ZM349.815 271.383L349.766 300.054L380.019 300.106L380.068 271.435L349.815 271.383ZM381.466 271.438L381.416 300.109L411.669 300.161L411.719 271.49L381.466 271.438ZM413.116 271.492L413.067 300.163L443.32 300.216L443.369 271.544L413.116 271.492ZM444.767 271.547L444.717 300.218L474.968 300.27L475.018 271.599L444.767 271.547ZM476.415 271.601L476.365 300.273L506.621 300.325L506.67 271.654L476.415 271.601ZM508.067 271.656L508.018 300.327L538.271 300.379L538.32 271.708L508.067 271.656ZM539.718 271.711L539.668 300.382L569.919 300.434L569.969 271.763L539.718 271.711ZM571.366 271.765L571.317 300.437L601.57 300.489L601.619 271.818L571.366 271.765ZM603.017 271.82L602.967 300.491L633.22 300.543L633.27 271.872L603.017 271.82ZM634.667 271.875L634.617 300.546L664.871 300.598L664.92 271.927L634.667 271.875ZM666.317 271.929L666.268 300.6L696.519 300.653L696.569 271.981L666.317 271.929ZM697.966 271.984L697.916 300.655L728.171 300.707L728.221 272.036L697.966 271.984ZM729.618 272.038L729.569 300.71L759.82 300.762L759.869 272.091L729.618 272.038ZM761.266 272.093L761.217 300.764L791.47 300.816L791.52 272.145L761.266 272.093ZM792.917 272.148L792.867 300.819L823.121 300.871L823.17 272.2L792.917 272.148ZM824.567 272.202L824.518 300.874L854.771 300.926L854.82 272.255L824.567 272.202ZM856.218 272.257L856.168 300.928L886.419 300.98L886.469 272.309L856.218 272.257ZM887.866 272.312L887.817 300.983L918.07 301.035L918.119 272.364L887.866 272.312ZM919.516 272.366L919.467 301.037L949.72 301.09L949.77 272.418L919.516 272.366ZM951.167 272.421L951.117 301.092L981.371 301.144L981.42 272.473L951.167 272.421ZM982.817 272.475L982.768 301.147L1013.02 301.199L1013.07 272.528L982.817 272.475ZM1013.02 302.596L982.765 302.544L982.716 331.215L1012.97 331.267L1013.02 302.596ZM1012.96 332.664L982.713 332.612L982.664 361.283L1012.92 361.336L1012.96 332.664ZM1012.91 362.733L982.661 362.681L982.612 391.352L1012.86 391.404L1012.91 362.733ZM1012.86 392.801L982.61 392.749L982.56 421.42L1012.81 421.472L1012.86 392.801ZM1012.81 422.87L982.558 422.817L982.508 451.488L1012.76 451.541L1012.81 422.87ZM1012.76 452.938L982.506 452.886L982.456 481.557L1012.71 481.609L1012.76 452.938ZM1012.71 483.006L982.454 482.954L982.404 511.625L1012.66 511.677L1012.71 483.006ZM1012.65 513.075L982.402 513.022L982.352 541.694L1012.6 541.746L1012.65 513.075ZM980.955 541.691L981.005 513.02L950.752 512.968L950.702 541.639L980.955 541.691ZM949.305 541.636L949.354 512.965L919.101 512.913L919.052 541.584L949.305 541.636ZM917.655 541.582L917.704 512.911L887.451 512.859L887.401 541.53L917.655 541.582ZM886.004 541.527L886.054 512.856L855.802 512.804L855.753 541.475L886.004 541.527ZM854.356 541.473L854.405 512.801L824.152 512.749L824.102 541.42L854.356 541.473ZM822.705 541.418L822.755 512.747L792.502 512.695L792.452 541.366L822.705 541.418ZM791.055 541.363L791.104 512.692L760.851 512.64L760.802 541.311L791.055 541.363ZM759.405 541.309L759.454 512.638L729.203 512.585L729.153 541.257L759.405 541.309ZM727.756 541.254L727.806 512.583L697.551 512.531L697.501 541.202L727.756 541.254ZM696.104 541.2L696.153 512.528L665.902 512.476L665.853 541.147L696.104 541.2ZM664.455 541.145L664.505 512.474L634.252 512.422L634.202 541.093L664.455 541.145ZM632.805 541.09L632.854 512.419L602.601 512.367L602.552 541.038L632.805 541.09ZM601.155 541.036L601.204 512.364L570.951 512.312L570.901 540.983L601.155 541.036ZM569.504 540.981L569.554 512.31L539.302 512.258L539.253 540.929L569.504 540.981ZM537.856 540.926L537.905 512.255L507.652 512.203L507.603 540.874L537.856 540.926ZM506.205 540.872L506.255 512.201L476 512.148L475.95 540.82L506.205 540.872ZM474.553 540.817L474.602 512.146L444.351 512.094L444.302 540.765L474.553 540.817ZM442.905 540.763L442.954 512.091L412.701 512.039L412.651 540.71L442.905 540.763ZM411.254 540.708L411.304 512.037L381.05 511.984L381.001 540.656L411.254 540.708ZM379.604 540.653L379.653 511.982L349.4 511.93L349.351 540.601L379.604 540.653ZM347.953 540.599L348.003 511.927L317.75 511.875L317.7 540.546L347.953 540.599ZM317.752 510.478L348.005 510.53L348.055 481.859L317.802 481.807L317.752 510.478ZM317.804 480.41L348.057 480.462L348.107 451.791L317.854 451.738L317.804 480.41ZM317.856 450.341L348.109 450.394L348.159 421.722L317.905 421.67L317.856 450.341ZM317.908 420.273L348.161 420.325L348.21 391.654L317.957 391.602L317.908 420.273ZM317.96 390.205L348.213 390.257L348.262 361.586L318.009 361.533L317.96 390.205ZM318.012 360.136L348.265 360.188L348.314 331.517L318.061 331.465L318.012 360.136ZM318.064 330.068L348.317 330.12L348.366 301.449L318.113 301.397L318.064 330.068ZM349.763 301.451L349.714 330.123L379.967 330.175L380.017 301.504L349.763 301.451ZM381.414 301.506L381.364 330.177L411.618 330.229L411.667 301.558L381.414 301.506ZM413.064 301.561L413.015 330.232L443.268 330.284L443.317 301.613L413.064 301.561ZM444.715 301.615L444.665 330.286L474.916 330.339L474.966 301.667L444.715 301.615ZM476.363 301.67L476.313 330.341L506.569 330.393L506.618 301.722L476.363 301.67ZM508.015 301.724L507.966 330.396L538.219 330.448L538.268 301.777L508.015 301.724ZM539.666 301.779L539.616 330.45L569.868 330.502L569.917 301.831L539.666 301.779ZM571.314 301.834L571.265 330.505L601.518 330.557L601.568 301.886L571.314 301.834ZM602.965 301.888L602.915 330.56L633.168 330.612L633.218 301.941L602.965 301.888ZM634.615 301.943L634.565 330.614L664.819 330.666L664.868 301.995L634.615 301.943ZM666.265 301.998L666.216 330.669L696.467 330.721L696.517 302.05L666.265 301.998ZM697.914 302.052L697.864 330.723L728.12 330.776L728.169 302.104L697.914 302.052ZM729.566 302.107L729.517 330.778L759.768 330.83L759.817 302.159L729.566 302.107ZM761.214 302.161L761.165 330.833L791.418 330.885L791.468 302.214L761.214 302.161ZM792.865 302.216L792.815 330.887L823.069 330.939L823.118 302.268L792.865 302.216ZM824.515 302.271L824.466 330.942L854.719 330.994L854.768 302.323L824.515 302.271ZM856.166 302.325L856.116 330.997L886.367 331.049L886.417 302.378L856.166 302.325ZM887.814 302.38L887.765 331.051L918.018 331.103L918.067 302.432L887.814 302.38ZM919.465 302.435L919.415 331.106L949.668 331.158L949.718 302.487L919.465 302.435ZM951.115 302.489L951.065 331.16L981.319 331.213L981.368 302.541L951.115 302.489ZM981.316 332.61L951.063 332.558L951.013 361.229L981.267 361.281L981.316 332.61ZM981.264 362.678L951.011 362.626L950.962 391.297L981.215 391.349L981.264 362.678ZM981.212 392.747L950.959 392.694L950.91 421.365L981.163 421.418L981.212 392.747ZM981.161 422.815L950.907 422.763L950.858 451.434L981.111 451.486L981.161 422.815ZM981.109 452.883L950.855 452.831L950.806 481.502L981.059 481.554L981.109 452.883ZM981.057 482.952L950.803 482.899L950.754 511.571L981.007 511.623L981.057 482.952ZM949.357 511.568L949.406 482.897L919.153 482.845L919.104 511.516L949.357 511.568ZM917.706 511.514L917.756 482.842L887.503 482.79L887.453 511.461L917.706 511.514ZM886.056 511.459L886.106 482.788L855.854 482.736L855.805 511.407L886.056 511.459ZM854.408 511.404L854.457 482.733L824.204 482.681L824.154 511.352L854.408 511.404ZM822.757 511.35L822.807 482.678L792.553 482.626L792.504 511.297L822.757 511.35ZM791.107 511.295L791.156 482.624L760.903 482.572L760.854 511.243L791.107 511.295ZM759.456 511.24L759.506 482.569L729.255 482.517L729.205 511.188L759.456 511.24ZM727.808 511.186L727.858 482.515L697.602 482.462L697.553 511.134L727.808 511.186ZM696.156 511.131L696.205 482.46L665.954 482.408L665.904 511.079L696.156 511.131ZM664.507 511.077L664.557 482.405L634.303 482.353L634.254 511.024L664.507 511.077ZM632.857 511.022L632.906 482.351L602.653 482.298L602.604 510.97L632.857 511.022ZM601.207 510.967L601.256 482.296L571.003 482.244L570.953 510.915L601.207 510.967ZM569.556 510.913L569.606 482.241L539.354 482.189L539.305 510.86L569.556 510.913ZM537.908 510.858L537.957 482.187L507.704 482.135L507.654 510.806L537.908 510.858ZM506.257 510.803L506.307 482.132L476.052 482.08L476.002 510.751L506.257 510.803ZM474.605 510.749L474.654 482.078L444.403 482.025L444.354 510.697L474.605 510.749ZM442.957 510.694L443.006 482.023L412.753 481.971L412.703 510.642L442.957 510.694ZM411.306 510.64L411.356 481.968L381.102 481.916L381.053 510.587L411.306 510.64ZM379.656 510.585L379.705 481.914L349.452 481.861L349.402 510.533L379.656 510.585ZM349.454 480.464L379.708 480.517L379.757 451.845L349.504 451.793L349.454 480.464ZM349.506 450.396L379.759 450.448L379.809 421.777L349.556 421.725L349.506 450.396ZM349.558 420.328L379.811 420.38L379.861 391.709L349.608 391.656L349.558 420.328ZM349.61 390.259L379.863 390.311L379.913 361.64L349.66 361.588L349.61 390.259ZM349.662 360.191L379.915 360.243L379.965 331.572L349.711 331.52L349.662 360.191ZM381.362 331.574L381.312 360.246L411.566 360.298L411.615 331.626L381.362 331.574ZM413.012 331.629L412.963 360.3L443.216 360.352L443.266 331.681L413.012 331.629ZM444.663 331.684L444.613 360.355L474.864 360.407L474.914 331.736L444.663 331.684ZM476.311 331.738L476.262 360.409L506.517 360.462L506.566 331.79L476.311 331.738ZM507.963 331.793L507.914 360.464L538.167 360.516L538.217 331.845L507.963 331.793ZM539.614 331.847L539.564 360.519L569.816 360.571L569.865 331.9L539.614 331.847ZM571.262 331.902L571.213 360.573L601.466 360.625L601.516 331.954L571.262 331.902ZM602.913 331.957L602.863 360.628L633.116 360.68L633.166 332.009L602.913 331.957ZM634.563 332.011L634.513 360.683L664.767 360.735L664.816 332.064L634.563 332.011ZM666.213 332.066L666.164 360.737L696.415 360.789L696.465 332.118L666.213 332.066ZM697.862 332.121L697.812 360.792L728.068 360.844L728.117 332.173L697.862 332.121ZM729.514 332.175L729.465 360.846L759.716 360.899L759.765 332.227L729.514 332.175ZM761.163 332.23L761.113 360.901L791.366 360.953L791.416 332.282L761.163 332.23ZM792.813 332.284L792.763 360.956L823.017 361.008L823.066 332.337L792.813 332.284ZM824.463 332.339L824.414 361.01L854.667 361.062L854.717 332.391L824.463 332.339ZM856.114 332.394L856.064 361.065L886.316 361.117L886.365 332.446L856.114 332.394ZM887.762 332.448L887.713 361.12L917.966 361.172L918.015 332.501L887.762 332.448ZM919.413 332.503L919.363 361.174L949.616 361.226L949.666 332.555L919.413 332.503ZM949.614 362.624L919.361 362.571L919.311 391.243L949.564 391.295L949.614 362.624ZM949.562 392.692L919.309 392.64L919.259 421.311L949.513 421.363L949.562 392.692ZM949.51 422.76L919.257 422.708L919.207 451.379L949.461 451.431L949.51 422.76ZM949.458 452.829L919.205 452.776L919.156 481.448L949.409 481.5L949.458 452.829ZM917.758 481.445L917.808 452.774L887.555 452.722L887.505 481.393L917.758 481.445ZM886.108 481.391L886.157 452.719L855.906 452.667L855.857 481.338L886.108 481.391ZM854.46 481.336L854.509 452.665L824.256 452.612L824.206 481.284L854.46 481.336ZM822.809 481.281L822.859 452.61L792.605 452.558L792.556 481.229L822.809 481.281ZM791.159 481.227L791.208 452.555L760.955 452.503L760.906 481.174L791.159 481.227ZM759.508 481.172L759.558 452.501L729.307 452.449L729.257 481.12L759.508 481.172ZM727.86 481.117L727.91 452.446L697.654 452.394L697.605 481.065L727.86 481.117ZM696.208 481.063L696.257 452.392L666.006 452.339L665.956 481.011L696.208 481.063ZM664.559 481.008L664.609 452.337L634.355 452.285L634.306 480.956L664.559 481.008ZM632.909 480.954L632.958 452.282L602.705 452.23L602.656 480.901L632.909 480.954ZM601.259 480.899L601.308 452.228L571.055 452.176L571.005 480.847L601.259 480.899ZM569.608 480.844L569.658 452.173L539.406 452.121L539.357 480.792L569.608 480.844ZM537.96 480.79L538.009 452.118L507.756 452.066L507.706 480.737L537.96 480.79ZM506.309 480.735L506.359 452.064L476.103 452.012L476.054 480.683L506.309 480.735ZM474.657 480.68L474.706 452.009L444.455 451.957L444.406 480.628L474.657 480.68ZM443.009 480.626L443.058 451.955L412.805 451.902L412.755 480.574L443.009 480.626ZM411.358 480.571L411.408 451.9L381.154 451.848L381.105 480.519L411.358 480.571ZM381.157 450.451L411.41 450.503L411.46 421.832L381.206 421.779L381.157 450.451ZM381.209 420.382L411.462 420.434L411.511 391.763L381.258 391.711L381.209 420.382ZM381.26 390.314L411.514 390.366L411.563 361.695L381.31 361.643L381.26 390.314ZM412.96 361.697L412.911 390.369L443.164 390.421L443.214 361.75L412.96 361.697ZM444.611 361.752L444.561 390.423L474.812 390.475L474.862 361.804L444.611 361.752ZM476.259 361.807L476.21 390.478L506.465 390.53L506.514 361.859L476.259 361.807ZM507.911 361.861L507.862 390.532L538.115 390.585L538.165 361.913L507.911 361.861ZM539.562 361.916L539.512 390.587L569.764 390.639L569.813 361.968L539.562 361.916ZM571.21 361.97L571.161 390.642L601.414 390.694L601.464 362.023L571.21 361.97ZM602.861 362.025L602.811 390.696L633.064 390.748L633.114 362.077L602.861 362.025ZM634.511 362.08L634.462 390.751L664.715 390.803L664.764 362.132L634.511 362.08ZM666.161 362.134L666.112 390.806L696.363 390.858L696.413 362.187L666.161 362.134ZM697.81 362.189L697.761 390.86L728.016 390.912L728.065 362.241L697.81 362.189ZM729.462 362.244L729.413 390.915L759.664 390.967L759.714 362.296L729.462 362.244ZM761.111 362.298L761.061 390.969L791.314 391.022L791.364 362.35L761.111 362.298ZM792.761 362.353L792.712 391.024L822.965 391.076L823.014 362.405L792.761 362.353ZM824.411 362.407L824.362 391.079L854.615 391.131L854.665 362.46L824.411 362.407ZM856.062 362.462L856.012 391.133L886.264 391.185L886.313 362.514L856.062 362.462ZM887.71 362.517L887.661 391.188L917.914 391.24L917.964 362.569L887.71 362.517ZM917.912 392.637L887.658 392.585L887.609 421.256L917.862 421.308L917.912 392.637ZM917.86 422.706L887.607 422.653L887.557 451.325L917.81 451.377L917.86 422.706ZM886.16 451.322L886.209 422.651L855.958 422.599L855.909 451.27L886.16 451.322ZM854.511 451.268L854.561 422.596L824.308 422.544L824.258 451.215L854.511 451.268ZM822.861 451.213L822.911 422.542L792.657 422.49L792.608 451.161L822.861 451.213ZM791.211 451.158L791.26 422.487L761.007 422.435L760.957 451.106L791.211 451.158ZM759.56 451.104L759.61 422.432L729.359 422.38L729.309 451.051L759.56 451.104ZM727.912 451.049L727.961 422.378L697.706 422.326L697.657 450.997L727.912 451.049ZM696.26 450.994L696.309 422.323L666.058 422.271L666.008 450.942L696.26 450.994ZM664.611 450.94L664.661 422.269L634.407 422.216L634.358 450.888L664.611 450.94ZM632.961 450.885L633.01 422.214L602.757 422.162L602.708 450.833L632.961 450.885ZM601.31 450.831L601.36 422.159L571.107 422.107L571.057 450.778L601.31 450.831ZM569.66 450.776L569.71 422.105L539.458 422.052L539.409 450.724L569.66 450.776ZM538.011 450.721L538.061 422.05L507.808 421.998L507.758 450.669L538.011 450.721ZM506.361 450.667L506.411 421.995L476.155 421.943L476.106 450.614L506.361 450.667ZM474.709 450.612L474.758 421.941L444.507 421.889L444.458 450.56L474.709 450.612ZM443.06 450.557L443.11 421.886L412.857 421.834L412.807 450.505L443.06 450.557ZM412.859 420.437L443.112 420.489L443.162 391.818L412.909 391.766L412.859 420.437ZM444.559 391.82L444.509 420.491L474.761 420.544L474.81 391.872L444.559 391.82ZM476.207 391.875L476.158 420.546L506.413 420.598L506.462 391.927L476.207 391.875ZM507.86 391.93L507.81 420.601L538.063 420.653L538.113 391.982L507.86 391.93ZM539.51 391.984L539.461 420.655L569.712 420.708L569.761 392.036L539.51 391.984ZM571.159 392.039L571.109 420.71L601.362 420.762L601.412 392.091L571.159 392.039ZM602.809 392.093L602.759 420.765L633.013 420.817L633.062 392.146L602.809 392.093ZM634.459 392.148L634.41 420.819L664.663 420.871L664.712 392.2L634.459 392.148ZM666.11 392.203L666.06 420.874L696.312 420.926L696.361 392.255L666.11 392.203ZM697.758 392.257L697.709 420.928L727.964 420.981L728.013 392.31L697.758 392.257ZM729.411 392.312L729.361 420.983L759.612 421.035L759.662 392.364L729.411 392.312ZM761.059 392.367L761.009 421.038L791.263 421.09L791.312 392.419L761.059 392.367ZM792.709 392.421L792.66 421.092L822.913 421.145L822.962 392.473L792.709 392.421ZM824.36 392.476L824.31 421.147L854.563 421.199L854.613 392.528L824.36 392.476ZM856.01 392.53L855.96 421.202L886.212 421.254L886.261 392.583L856.01 392.53Z" fill="#0787B3" fill-opacity="0.5"/>
</svg>
