<svg width="24" height="24" viewBox="0 0 24 24" fill="none" xmlns="http://www.w3.org/2000/svg">
<path d="M11.836 16.3107L13.6646 15.2663C13.8841 15.1424 14.1504 15.2421 14.1504 15.5156V22.653C14.1504 22.8444 13.9936 23 13.8003 22.9997L11.836 22.997V16.3107Z" fill="#CC2229"/>
<path d="M6.7147 6.0782C8.17751 5.83158 9.65774 5.70794 11.012 5.70794C17.8729 5.70794 23.2893 8.2815 23.2893 11.6129C23.2893 14.0631 20.4186 16.09 16.6268 17.3234C16.3558 17.4118 16.121 17.341 16.049 17.1296C15.9766 16.9003 16.0309 16.7417 16.5544 16.5127C18.721 15.5608 20.5446 14.1333 20.5446 12.7054C20.5446 9.88521 15.0018 7.73475 8.42974 7.73475C7.41847 7.73475 6.49764 7.7876 5.64916 7.85806C5.2338 8.79236 5.01707 9.83236 5.01707 10.9076C5.01707 13.0404 5.91982 15.1909 7.54475 16.6364C7.76148 16.8305 7.77957 17.0066 7.6352 17.2004C7.49082 17.3945 7.2741 17.3945 7.0212 17.2356C4.45734 15.6316 2.79623 12.7057 2.86858 9.62097C2.86858 9.14501 2.92251 8.68667 3.01295 8.24594C2.16447 8.4221 1.35217 8.61587 0.557624 8.84521C0.305057 8.91567 0.124509 8.84521 0.0340673 8.65144C-0.0560395 8.44005 0.0340673 8.26389 0.286969 8.12263C1.2078 7.61144 2.25491 7.18866 3.39247 6.83601C4.63822 3.48702 7.90619 1.07232 11.752 1.00153C14.695 0.948681 17.1865 2.27053 18.8838 4.22721C19.0824 4.45622 19.1005 4.63271 18.92 4.80887C18.7394 4.98536 18.5589 4.96741 18.3241 4.77364C17.0241 3.69841 15.092 2.97583 13.1602 2.97583C10.5424 2.97583 8.19527 4.19231 6.7147 6.0782Z" fill="#CC2229"/>
<path d="M9.61018 22.7763V17.8406C9.61018 17.6564 9.69693 17.5311 9.83795 17.4514L11.2194 16.6623V23H9.83561C9.711 23 9.61018 22.9 9.61018 22.7763Z" fill="#CC2229"/>
</svg>
