<svg width="24" height="24" viewBox="0 0 24 24" fill="none" xmlns="http://www.w3.org/2000/svg">
<g clip-path="url(#clip0_19_74)">
<path d="M19.1209 14.8792C19.4319 15.1905 19.6706 15.5663 19.8202 15.98C19.9698 16.3938 20.0267 16.8354 19.9869 17.2735C19.947 17.7117 19.8113 18.1357 19.5895 18.5157C19.3676 18.8956 19.065 19.2221 18.7029 19.4722C18.2014 19.8156 17.6078 19.9994 16.9999 19.9994C16.3921 19.9994 15.7985 19.8156 15.2969 19.4722C14.9348 19.2222 14.632 18.8957 14.4101 18.5158C14.1881 18.1359 14.0524 17.7118 14.0125 17.2736C13.9726 16.8353 14.0295 16.3937 14.1793 15.98C14.329 15.5662 14.5679 15.1904 14.8789 14.8792C15.1574 14.6005 15.488 14.3794 15.8519 14.2285C16.2159 14.0776 16.606 14 16.9999 14C17.3939 14 17.784 14.0776 18.1479 14.2285C18.5119 14.3794 18.8425 14.6005 19.1209 14.8792" stroke="#172554" stroke-linecap="round" stroke-linejoin="round"/>
<path d="M19.121 19.1211L21 21.0001" stroke="#172554" stroke-linecap="round" stroke-linejoin="round"/>
<path d="M8 10H5C4.46957 10 3.96086 9.78929 3.58579 9.41421C3.21071 9.03914 3 8.53043 3 8V5C3 4.46957 3.21071 3.96086 3.58579 3.58579C3.96086 3.21071 4.46957 3 5 3H8C8.53043 3 9.03914 3.21071 9.41421 3.58579C9.78929 3.96086 10 4.46957 10 5V8C10 8.53043 9.78929 9.03914 9.41421 9.41421C9.03914 9.78929 8.53043 10 8 10Z" stroke="#172554" stroke-linecap="round" stroke-linejoin="round"/>
<path d="M19 10H16C15.4696 10 14.9609 9.78929 14.5858 9.41421C14.2107 9.03914 14 8.53043 14 8V5C14 4.46957 14.2107 3.96086 14.5858 3.58579C14.9609 3.21071 15.4696 3 16 3H19C19.5304 3 20.0391 3.21071 20.4142 3.58579C20.7893 3.96086 21 4.46957 21 5V8C21 8.53043 20.7893 9.03914 20.4142 9.41421C20.0391 9.78929 19.5304 10 19 10Z" stroke="#172554" stroke-linecap="round" stroke-linejoin="round"/>
<path d="M8 21H5C4.46957 21 3.96086 20.7893 3.58579 20.4142C3.21071 20.0391 3 19.5304 3 19V16C3 15.4696 3.21071 14.9609 3.58579 14.5858C3.96086 14.2107 4.46957 14 5 14H8C8.53043 14 9.03914 14.2107 9.41421 14.5858C9.78929 14.9609 10 15.4696 10 16V19C10 19.5304 9.78929 20.0391 9.41421 20.4142C9.03914 20.7893 8.53043 21 8 21Z" stroke="#172554" stroke-linecap="round" stroke-linejoin="round"/>
</g>
<defs>
<clipPath id="clip0_19_74">
<rect width="24" height="24" fill="white"/>
</clipPath>
</defs>
</svg>
